<?xml version="1.0" encoding="UTF-8"?>
<svg id="Calque_2" data-name="Calque 2" xmlns="http://www.w3.org/2000/svg" viewBox="0 0 764.27 438.3">
  <defs>
    <style>
      .cls-1, .cls-2, .cls-3, .cls-4, .cls-5 {
        stroke: #1d1d1b;
        stroke-miterlimit: 10;
      }

      .cls-1, .cls-2, .cls-4 {
        fill: none;
      }

      .cls-1, .cls-3, .cls-5 {
        stroke-width: .5px;
      }

      .cls-3 {
        fill: #1d1d1b;
      }

      .cls-4 {
        stroke-width: 2px;
      }

      .cls-5 {
        fill: #fff;
      }
    </style>
  </defs>
  <g id="Atria">
    <line class="cls-2" x1="228.25" y1="416.22" x2="694.44" y2="420.17"/>
    <line class="cls-2" x1="52.65" y1="384.23" x2="694.77" y2="392.52"/>
    <line class="cls-2" x1="95.17" y1="358.71" x2="694.1" y2="366.45"/>
    <line class="cls-2" x1="140.61" y1="332.03" x2="693.78" y2="339.17"/>
    <line class="cls-2" x1="190.58" y1="303.79" x2="693.44" y2="310.28"/>
    <line class="cls-2" x1="240.25" y1="277.35" x2="693.12" y2="283.2"/>
    <line class="cls-2" x1="276.62" y1="259.03" x2="692.89" y2="263.73"/>
    <line class="cls-2" x1="349.05" y1="230.9" x2="692.55" y2="235.34"/>
    <line class="cls-2" x1="488.03" y1="212.36" x2="692.19" y2="215"/>
    <line class="cls-2" x1="43.43" y1="436.21" x2="694.77" y2="437.8"/>
    <path class="cls-2" d="M.65,371.12c-5.65,1.73,288.7-178.21,377.55-179.23,37.28-6.13,302.64-39.19,315.27-26.11v14.55c-12.63-13.08-278,16.38-315.27,22.51C289.36,203.86-4.72,394.62.57,385.67l.08-14.55Z"/>
    <path class="cls-2" d="M10.17,393.86c-5.53,1.73,282.49-178.21,369.43-179.23,36.47-6.13,296.13-39.19,313.28-24.51v14.55c-17.15-14.68-276.81,14.79-313.28,20.92-86.94,1.02-374.7,191.77-369.51,182.83l.08-14.55Z"/>
    <path class="cls-2" d="M18.97,392.06l-18.4-6.38-.07,8.68,15.15,4.09s2.04-1.79,3.32-2.55,0-3.83,0-3.83Z"/>
    <path class="cls-2" d="M69.03,346.78s12.75,11.57,17.86,10.8,3.57-3.83,3.57-3.83l-16.98-9.59"/>
    <path class="cls-2" d="M138.01,305.86l14.27,11.13s-2.04,5.87-4.34,4.09c-2.3-1.79-13.82-13.02-13.82-13.02"/>
    <polyline class="cls-2" points="197.27 273.43 207.43 286.86 210.75 285.08 201.39 271.25"/>
    <path class="cls-2" d="M258.23,242.67l5.36,13.05s4.85,1.79,4.09-2.3-4.68-13-4.68-13"/>
    <path class="cls-2" d="M316.5,217.55l1.74,12.89s4.09,6.38,4.09,1.79-1.36-16.32-1.36-16.32"/>
    <path class="cls-2" d="M374.17,202.9v14.01s4.07,7.91,4.83,2.55,0-17.06,0-17.06"/>
    <path class="cls-2" d="M435.17,195.41l-1.53,13.58s3.32,4.09,3.83-1.02c.51-5.11,2.04-14.3,2.04-14.3"/>
    <path class="cls-2" d="M492.16,189.37c-.83.08-4.4,11.7-4.4,11.7,0,0,2.92,4.95,4.4,1.33,1.48-3.62,4.83-13.51,4.83-13.51"/>
    <path class="cls-2" d="M546.5,184.34s-5.88,13.16-4.35,13.16,2.06,5.11,4.35,0c2.29-5.11,5.66-13.64,5.66-13.64"/>
    <line class="cls-2" x1="601.9" y1="180.18" x2="595.77" y2="191.82"/>
    <path class="cls-2" d="M595.77,191.82s1.28,5.17,3.06,1.85,8.45-13.83,8.45-13.83"/>
    <path class="cls-2" d="M654.75,177.92s-5.37,9.01-6.13,10.98,2.55,6.05,4.85,1.2c2.3-4.85,8.94-12.22,8.94-12.22"/>
    <path class="cls-2" d="M691.07,179.84s-5.68,13.06-5.68,13.83.39,13.97,5.68,1.11c5.3-12.86,2.41-14.45,2.41-14.45"/>
    <line class="cls-2" x1="613.62" y1="202.12" x2="616.4" y2="437.8"/>
    <line class="cls-2" x1="655.46" y1="200.38" x2="658.26" y2="437.8"/>
    <line class="cls-2" x1="692.19" y1="204.18" x2="694.77" y2="437.8"/>
    <line class="cls-2" x1="572.77" y1="204.9" x2="576.58" y2="437.8"/>
    <line class="cls-2" x1="535.98" y1="207.99" x2="542.05" y2="437.8"/>
    <line class="cls-2" x1="498.76" y1="211.54" x2="505.16" y2="437.8"/>
    <line class="cls-2" x1="458.71" y1="215.57" x2="463.54" y2="437.8"/>
    <line class="cls-2" x1="421.58" y1="220" x2="426.46" y2="437.8"/>
    <line class="cls-2" x1="379.6" y1="225.59" x2="381.38" y2="437.8"/>
    <line class="cls-2" x1="337.96" y1="234.3" x2="341.03" y2="437.8"/>
    <line class="cls-2" x1="295.08" y1="251.08" x2="295.08" y2="437.8"/>
    <line class="cls-2" x1="250.82" y1="272" x2="250.82" y2="437.8"/>
    <line class="cls-2" x1="203.74" y1="296.6" x2="203.74" y2="437.8"/>
    <line class="cls-2" x1="154.29" y1="324.16" x2="151.34" y2="437.8"/>
    <line class="cls-2" x1="101.97" y1="354.67" x2="99.25" y2="437.8"/>
    <rect class="cls-2" x="693.44" y="61.42" width="70.33" height="376.39"/>
    <rect class="cls-2" x="179.23" y="391.2" width="49.02" height="45.28"/>
    <line class="cls-2" x1="179.23" y1="416.22" x2="44.64" y2="415.15"/>
    <line class="cls-4" x1="205.4" y1="413.84" x2="208.72" y2="413.84"/>
    <line class="cls-4" x1="198.76" y1="413.84" x2="202.08" y2="413.84"/>
    <g id="_2_paratonnerre" data-name="2 paratonnerre">
      <path class="cls-2" d="M712.19,61.42V.65s56.43,15.06,26.81,43.15"/>
      <line class="cls-2" x1="712.19" y1="38.18" x2="737.89" y2="38.18"/>
      <line class="cls-2" x1="712.19" y1="33.84" x2="741.72" y2="33.84"/>
      <line class="cls-2" x1="712.19" y1="29.5" x2="744.02" y2="29.5"/>
      <line class="cls-2" x1="712.19" y1="25.16" x2="741.72" y2="25.16"/>
      <line class="cls-2" x1="712.19" y1="20.4" x2="737.89" y2="20.4"/>
      <line class="cls-2" x1="712.19" y1="15.63" x2="734.41" y2="15.63"/>
      <line class="cls-2" x1="712.19" y1="10.86" x2="730.58" y2="10.86"/>
      <line class="cls-2" x1="712.19" y1="6.1" x2="721.38" y2="6.1"/>
      <line class="cls-2" x1="712.19" y1="1.33" x2="714.49" y2="1.33"/>
    </g>
    <g id="antenne">
      <line class="cls-1" x1="758.02" y1="61.42" x2="758.02" y2="23.97"/>
      <circle class="cls-3" cx="758.02" cy="22.35" r="1.62"/>
    </g>
    <rect class="cls-5" x="703.11" y="110.52" width="50" height="46.61"/>
    <rect class="cls-5" x="703.11" y="63.91" width="50" height="46.61"/>
    <rect class="cls-5" x="703.11" y="202.78" width="50" height="46.61"/>
    <rect class="cls-5" x="703.11" y="156.17" width="50" height="46.61"/>
    <rect class="cls-5" x="703.11" y="296.44" width="50" height="46.61"/>
    <rect class="cls-5" x="703.11" y="249.39" width="50" height="46.61"/>
    <rect class="cls-5" x="703.11" y="388.7" width="50" height="46.61"/>
    <rect class="cls-5" x="703.11" y="342.09" width="50" height="46.61"/>
    <rect class="cls-2" x="708.11" y="67.21" width="40" height="40"/>
    <rect class="cls-2" x="708.11" y="113.82" width="40" height="40"/>
    <rect class="cls-2" x="708.6" y="159.48" width="40" height="40"/>
    <rect class="cls-2" x="708.6" y="206.09" width="40" height="40"/>
    <rect class="cls-2" x="708.11" y="253.58" width="40" height="40"/>
    <rect class="cls-2" x="708.11" y="299.96" width="40" height="40"/>
    <rect class="cls-2" x="708.6" y="345.4" width="40" height="40"/>
    <rect class="cls-2" x="708.11" y="392.01" width="40" height="40"/>
    <path class="cls-2" d="M763.77,437.8s-720.34-3.65-720.34-1.59l2.42-49.48"/>
  </g>
</svg>