<?xml version="1.0" encoding="UTF-8"?>
<svg id="Calque_2" data-name="Calque 2" xmlns="http://www.w3.org/2000/svg" viewBox="0 0 118.68 196.42">
  <defs>
    <style>
      .cls-1 {
        stroke-width: .5px;
      }

      .cls-1, .cls-2, .cls-3, .cls-4, .cls-5 {
        stroke: #1d1d1b;
        stroke-miterlimit: 10;
      }

      .cls-1, .cls-2, .cls-4, .cls-5 {
        fill: none;
      }

      .cls-2 {
        stroke-width: .25px;
      }

      .cls-3 {
        fill: #1d1d1b;
      }

      .cls-3, .cls-5 {
        stroke-width: .1px;
      }
    </style>
  </defs>
  <g id="lion_batiment" data-name="lion batiment">
    <polyline class="cls-1" points="4.41 194.76 6.52 116.38 26.8 111.82 80.37 110.67 114.1 111.43 118.41 194.76 108.61 196.16 104.84 193.93"/>
    <line class="cls-4" x1="33.39" y1="111.68" x2="33.39" y2="194.76"/>
    <g id="traits_sur_mur_1_er_étage" data-name="traits sur mur 1 er étage">
      <polyline class="cls-1" points="6.37 121.99 28.63 117.65 33.39 117.65"/>
      <polyline class="cls-1" points="33.39 122.76 27.99 122.76 6.25 126.33"/>
      <polyline class="cls-1" points="6.13 130.8 28.63 127.61 33.39 127.61"/>
      <polyline class="cls-1" points="33.39 132.97 28.37 132.97 6.13 135.39"/>
      <polyline class="cls-1" points="6.13 140.24 28.75 137.56 33.39 137.56"/>
      <polyline class="cls-1" points="5.74 145.23 11.45 144.78 12.27 145.23 16.54 152.95"/>
      <polyline class="cls-1" points="6.13 150.46 11.97 150.27 14.86 153.78"/>
      <line class="cls-1" x1="12.97" y1="156.12" x2="5.45" y2="156.33"/>
      <line class="cls-1" x1="12.79" y1="161.56" x2="5.3" y2="161.56"/>
      <line class="cls-1" x1="12.63" y1="166.8" x2="5.16" y2="166.8"/>
      <line class="cls-1" x1="12.27" y1="171.65" x2="5.16" y2="171.65"/>
      <line class="cls-1" x1="12.3" y1="177.05" x2="4.89" y2="176.89"/>
      <line class="cls-1" x1="4.75" y1="182.25" x2="12.27" y2="182.55"/>
      <line class="cls-1" x1="73.86" y1="116.38" x2="114.42" y2="117.65"/>
      <polyline class="cls-1" points="114.42 123.27 79.69 121.22 74.01 121.22"/>
      <polyline class="cls-1" points="74.17 126.41 78.54 126.33 114.94 127.61"/>
      <line class="cls-1" x1="114.94" y1="132.97" x2="74.34" y2="131.7"/>
      <line class="cls-1" x1="74.46" y1="136.68" x2="115.45" y2="137.56"/>
      <line class="cls-1" x1="115.76" y1="143.44" x2="101.87" y2="143.25"/>
      <polyline class="cls-1" points="116.02 148.54 104.84 148.54 102.89 150.46"/>
      <line class="cls-1" x1="116.35" y1="154.81" x2="105.67" y2="154.81"/>
      <line class="cls-1" x1="106.02" y1="160.38" x2="116.62" y2="160.16"/>
      <line class="cls-1" x1="116.92" y1="165.79" x2="106.37" y2="166.04"/>
      <line class="cls-1" x1="106.68" y1="171.09" x2="117.17" y2="170.76"/>
      <line class="cls-1" x1="117.45" y1="176.12" x2="107.03" y2="176.62"/>
      <line class="cls-1" x1="107.35" y1="181.84" x2="117.72" y2="181.35"/>
    </g>
    <rect class="cls-1" x="40.5" y="155.89" width="13.33" height="37.47"/>
    <rect class="cls-1" x="56.46" y="155.44" width="13.28" height="37.47"/>
    <g id="Poignée">
      <path class="cls-2" d="M55.95,173.05c-.09.16,5.29-1.09,4.28,3.51-.8,3.62-4.58,2.18-4.28,2.68l-.02-.56c6.93-1.92.34-5.98,0-4.9l.02-.73Z"/>
      <path class="cls-2" d="M54.79,173.05c.09.16-5.29-1.09-4.28,3.51.8,3.62,4.58,2.18,4.28,2.68l.02-.56c-6.93-1.92-.34-5.98,0-4.9l-.02-.73Z"/>
    </g>
    <rect class="cls-2" x="37.69" y="152.12" width="35.04" height="42.64"/>
    <line class="cls-2" x1="73.69" y1="120.14" x2="33.39" y2="121.22"/>
    <polyline class="cls-2" points="33.8 140.24 53.54 139.99 53.83 152.12"/>
    <polyline class="cls-2" points="55.82 152.12 55.5 139.99 74.2 139.54"/>
    <polygon class="cls-2" points="53.14 151.67 36.8 151.67 36.8 140.82 52.82 140.82 53.14 151.67"/>
    <polygon class="cls-2" points="74.2 151.67 56.68 151.67 56.2 140.66 73.67 140.24 74.2 151.67"/>
    <path class="cls-1" d="M95.86,148.54c3.66.32,6.56,6.27,6.56,6.27l2.43,39.12-11.17.83-.38-5.3-.57-.66-1.33-33.99c7.16-15.88,14.29,0,14.29,0l2.04,32.86,10.3-.69"/>
    <line class="cls-1" x1="105.67" y1="154.81" x2="102.41" y2="154.81"/>
    <line class="cls-1" x1="106.02" y1="160.38" x2="102.89" y2="160.38"/>
    <line class="cls-1" x1="106.37" y1="166.04" x2="103.11" y2="166.04"/>
    <line class="cls-1" x1="106.68" y1="171.09" x2="103.42" y2="171.09"/>
    <line class="cls-1" x1="107.03" y1="176.62" x2="103.77" y2="176.62"/>
    <line class="cls-1" x1="107.35" y1="181.84" x2="104.09" y2="181.84"/>
    <polyline class="cls-1" points="104.46 187.72 107.71 187.67 108.61 196.16"/>
    <line class="cls-1" x1="73.69" y1="111.01" x2="76.31" y2="194.76"/>
    <line class="cls-1" x1="99.8" y1="147.75" x2="101.99" y2="143.1"/>
    <line class="cls-1" x1="96.46" y1="148.19" x2="94.64" y2="143.44"/>
    <polyline class="cls-1" points="94.23 150.03 92.33 148.19 75 148.54"/>
    <line class="cls-1" x1="74.68" y1="142.68" x2="94.64" y2="143.44"/>
    <polyline class="cls-1" points="75.05 154.55 79.31 154.55 91.38 154.81"/>
    <line class="cls-1" x1="91.6" y1="160.38" x2="75.25" y2="160.87"/>
    <line class="cls-1" x1="75.43" y1="166.55" x2="91.82" y2="166.04"/>
    <line class="cls-1" x1="92.04" y1="171.71" x2="75.6" y2="172.1"/>
    <line class="cls-1" x1="75.78" y1="177.91" x2="92.26" y2="177.21"/>
    <line class="cls-1" x1="92.48" y1="182.95" x2="75.96" y2="183.65"/>
    <line class="cls-1" x1="76.14" y1="189.27" x2="92.71" y2="188.8"/>
    <line class="cls-1" x1="72.73" y1="154.16" x2="75.25" y2="154.16"/>
    <line class="cls-1" x1="37.69" y1="154.55" x2="33.8" y2="154.81"/>
    <polyline class="cls-1" points="4.62 186.88 11.97 187.4 16.15 187.69"/>
    <path class="cls-1" d="M16.05,195.18l.47-35.7s-.47-5.36,2.62-6.06"/>
    <path class="cls-1" d="M11.72,195.18l1.25-39.07c3.94-6.92,9.09-.68,9.09-.68l-.96,33.36,12.3.43"/>
    <line class="cls-1" x1="12.27" y1="182.55" x2="16.15" y2="182.55"/>
    <line class="cls-1" x1="12.3" y1="177.05" x2="16.15" y2="177.05"/>
    <line class="cls-1" x1="12.63" y1="171.65" x2="16.15" y2="171.65"/>
    <line class="cls-1" x1="12.63" y1="166.8" x2="16.42" y2="166.8"/>
    <line class="cls-1" x1="12.79" y1="161.56" x2="16.42" y2="161.56"/>
    <line class="cls-1" x1="12.97" y1="156.12" x2="16.82" y2="156.23"/>
    <line class="cls-1" x1="14.86" y1="153.78" x2="17.6" y2="154.27"/>
    <line class="cls-1" x1="28.37" y1="194.76" x2="28.37" y2="189.05"/>
    <line class="cls-1" x1="21.1" y1="188.8" x2="21.1" y2="194.76"/>
    <line class="cls-1" x1="21.26" y1="183.01" x2="33.39" y2="183.52"/>
    <line class="cls-1" x1="33.39" y1="177.71" x2="21.42" y2="177.46"/>
    <line class="cls-1" x1="33.39" y1="172.16" x2="21.57" y2="172.16"/>
    <line class="cls-1" x1="33.8" y1="166.8" x2="21.73" y2="166.8"/>
    <line class="cls-1" x1="33.39" y1="161.31" x2="21.9" y2="160.92"/>
    <line class="cls-1" x1="33.39" y1="155.18" x2="22.05" y2="155.44"/>
    <polyline class="cls-1" points="33.39 149.5 21.57 149.5 18.92 153.16"/>
    <polyline class="cls-1" points="33.39 143.63 23.33 144.01 17.9 152.89"/>
    <line class="cls-1" x1="6.5" y1="117.14" x2="6.93" y2="39"/>
    <line class="cls-1" x1="114.09" y1="111.18" x2="109.43" y2="30.38"/>
    <polyline class="cls-1" points="6.5 113.05 27.73 108.07 80.07 106.29 113.93 109.01"/>
    <polyline class="cls-1" points="113.93 109.67 80.9 108.07 27.61 109.67 6.93 114.59"/>
    <polyline class="cls-1" points="6.56 105.82 27.95 100.88 77.82 98.76 113.41 101.74"/>
    <polyline class="cls-1" points="113.23 99.19 78.16 96.54 27.86 98.76 6.57 103.95"/>
    <polygon class="cls-1" points="21.22 94.61 16.05 95.82 16.24 70.42 21.22 67.84 21.22 94.61"/>
    <polyline class="cls-1" points="21.22 68.05 28.24 65.37 38.58 65.12"/>
    <polyline class="cls-1" points="21.22 73.16 28.31 70.54 38.58 70.16"/>
    <polyline class="cls-1" points="21.22 78.14 28.05 75.78 38.58 75.33"/>
    <polyline class="cls-1" points="21.22 83.31 28.24 80.82 38.58 80.5"/>
    <polyline class="cls-1" points="21.22 88.1 27.93 85.93 38.58 85.61"/>
    <polyline class="cls-1" points="21.22 93.07 28.24 91.1 38.84 90.84"/>
    <polyline class="cls-1" points="6.71 98.18 12.86 96.2 13.69 96.2"/>
    <polyline class="cls-1" points="6.63 93.07 13.12 91.16 14.01 91.61"/>
    <polyline class="cls-1" points="6.71 87.52 13.37 85.61 14.01 85.61"/>
    <polyline class="cls-1" points="6.69 82.99 13.12 80.5 13.69 80.76"/>
    <polyline class="cls-1" points="6.93 78.14 13.37 75.71 14.01 75.71"/>
    <polyline class="cls-1" points="6.74 73.16 13.31 71.05 14.01 71.05"/>
    <line class="cls-1" x1="6.77" y1="68.88" x2="12.29" y2="66.59"/>
    <polyline class="cls-1" points="22.31 62.56 28.5 60.27 38.2 59.82"/>
    <polyline class="cls-1" points="21.22 94.61 21.22 98.18 13.44 100.24 13.69 68.88 21.22 65.56 21.22 67.59"/>
    <line class="cls-2" x1="16.24" y1="70.42" x2="14.01" y2="68.88"/>
    <polygon class="cls-1" points="12.29 64.8 12.29 69.14 12.29 69.65 22.63 65.12 22.31 60.84 12.29 64.8"/>
    <polygon class="cls-1" points="67.03 94.65 38.58 95.82 38.58 61.99 43.88 61.76 65.55 60.82 67.03 94.65"/>
    <line class="cls-1" x1="43.84" y1="95.6" x2="43.38" y2="61.78"/>
    <line class="cls-1" x1="46.31" y1="95.5" x2="45.61" y2="61.68"/>
    <line class="cls-1" x1="52.81" y1="95.24" x2="52.06" y2="61.4"/>
    <line class="cls-1" x1="54.86" y1="95.15" x2="54.09" y2="61.32"/>
    <line class="cls-1" x1="60.87" y1="94.91" x2="59.99" y2="61.06"/>
    <line class="cls-1" x1="62.39" y1="60.96" x2="63.52" y2="94.8"/>
    <polygon class="cls-1" points="66.72 60.65 38.58 61.99 38.58 58.93 66.72 57.45 66.72 60.65"/>
    <polyline class="cls-1" points="66.72 58.07 76.5 57.45 85.05 58.8"/>
    <polyline class="cls-1" points="65.66 63.33 76.69 62.56 87.22 64.1"/>
    <polyline class="cls-1" points="65.88 68.44 76.44 67.8 87.48 69.3"/>
    <polyline class="cls-1" points="66.11 73.74 77.01 73.16 87.67 74.44"/>
    <polyline class="cls-1" points="66.33 78.69 76.89 78.32 87.8 79.48"/>
    <polyline class="cls-1" points="66.57 84.13 76.55 83.76 87.97 84.83"/>
    <polyline class="cls-1" points="66.72 89.24 77.31 88.99 88.05 89.88"/>
    <polygon class="cls-1" points="85.05 57.84 85.05 60.82 101.27 63.33 101.27 61.19 101.27 60.59 85.05 57.84"/>
    <line class="cls-1" x1="110.64" y1="62.96" x2="101.27" y2="61.19"/>
    <line class="cls-1" x1="110.99" y1="67.8" x2="99.94" y2="65.95"/>
    <line class="cls-1" x1="111.34" y1="72.65" x2="100.24" y2="71.21"/>
    <line class="cls-1" x1="111.68" y1="77.5" x2="100.24" y2="76.16"/>
    <line class="cls-1" x1="112.03" y1="82.41" x2="100.63" y2="81.12"/>
    <line class="cls-1" x1="112.68" y1="87.48" x2="100.79" y2="86.27"/>
    <line class="cls-1" x1="112.75" y1="92.49" x2="101.05" y2="91.33"/>
    <polyline class="cls-1" points="87.22 61.06 87.28 62.96 88.31 95.5 101.27 96.14 99.81 63.11 98.27 64.42 99.36 96.05"/>
    <line class="cls-1" x1="98.27" y1="64.42" x2="87.28" y2="62.96"/>
    <polygon class="cls-1" points="21.38 42.87 16.22 45.49 16.4 20.88 21.38 18.23 21.38 42.87"/>
    <polyline class="cls-1" points="21.35 42.07 21.39 45.49 13.91 49.1 14.5 20.03 21.38 15.96 21.38 17.98"/>
    <polygon class="cls-1" points="65.81 42.66 38.9 44.36 38.9 11.45 43.92 11.22 64.2 8.72 65.81 42.66"/>
    <line class="cls-1" x1="42.68" y1="44.05" x2="42.23" y2="11.24"/>
    <line class="cls-1" x1="45.14" y1="43.9" x2="44.46" y2="11.14"/>
    <line class="cls-1" x1="51.63" y1="43.51" x2="50.89" y2="10.33"/>
    <line class="cls-1" x1="53.69" y1="43.52" x2="52.93" y2="10.03"/>
    <line class="cls-1" x1="59.68" y1="43.03" x2="58.81" y2="9.34"/>
    <line class="cls-1" x1="61.09" y1="9.08" x2="62.33" y2="42.87"/>
    <line class="cls-1" x1="95.43" y1="14.12" x2="85.09" y2="12.28"/>
    <path class="cls-1" d="M20.65,52.03l.38,7.69s-5.52,2.72-5.52,2.59-.16-8.01,0-8.07,5.14-2.2,5.14-2.2Z"/>
    <polygon class="cls-1" points="13.91 52.29 21.39 48.84 22.15 60.59 13.73 64.23 13.91 52.29"/>
    <polyline class="cls-1" points="38.74 45.33 28.28 45.68 21.22 49.1"/>
    <polyline class="cls-1" points="38.74 50.12 28.18 50.69 21.69 53.57"/>
    <polyline class="cls-1" points="38.58 55.16 28.15 55.83 22.01 58.38"/>
    <line class="cls-1" x1="6.79" y1="64.61" x2="13.73" y2="61.78"/>
    <line class="cls-1" x1="6.82" y1="59.82" x2="13.84" y2="57.04"/>
    <path class="cls-1" d="M6.84,55.54c.18-.1,7.08-3.26,7.08-3.26"/>
    <line class="cls-1" x1="6.84" y1="50.69" x2="13.94" y2="47.6"/>
    <polyline class="cls-1" points="21.39 44.05 28.37 40.89 38.9 40.42"/>
    <polyline class="cls-1" points="21.39 39.14 28.53 35.95 38.9 35.44"/>
    <polyline class="cls-1" points="38.9 30.49 27.54 31.26 21.39 34.67"/>
    <line class="cls-1" x1="21.39" y1="29.82" x2="26.11" y2="27.32"/>
    <line class="cls-1" x1="31.4" y1="25.8" x2="38.9" y2="25.6"/>
    <line class="cls-1" x1="38.9" y1="20.64" x2="32.6" y2="20.45"/>
    <path class="cls-1" d="M25.82,22.83c-.26.06-4.44,2.68-4.44,2.68"/>
    <line class="cls-1" x1="33.39" y1="16.2" x2="38.9" y2="16.14"/>
    <line class="cls-1" x1="38.9" y1="11.6" x2="32.6" y2="11.6"/>
    <line class="cls-1" x1="21.38" y1="16.16" x2="24.8" y2="14.15"/>
    <line class="cls-1" x1="14.49" y1="20.28" x2="9.53" y2="22.83"/>
    <line class="cls-1" x1="14.31" y1="29.6" x2="9.69" y2="31.85"/>
    <line class="cls-1" x1="14.31" y1="34.06" x2="8.74" y2="36.81"/>
    <line class="cls-1" x1="14.13" y1="38.56" x2="6.93" y2="42.11"/>
    <line class="cls-1" x1="13.94" y1="43.35" x2="6.89" y2="46.29"/>
    <polygon class="cls-1" points="88.2 47.21 88.71 56.77 97.39 58.43 96.71 48.84 88.2 47.21"/>
    <polyline class="cls-1" points="87 58.17 86.27 44.6 86.24 44.05 99.25 46.83 99.89 60.35"/>
    <polyline class="cls-1" points="65.23 43.19 77.33 42.46 86.26 44.36"/>
    <polyline class="cls-1" points="86.53 49.32 77.36 47.56 65.23 48.14"/>
    <polyline class="cls-1" points="65.23 53.28 77.11 52.64 86.8 54.42"/>
    <line class="cls-1" x1="99.71" y1="56.61" x2="110.3" y2="58.16"/>
    <line class="cls-1" x1="109.96" y1="53.35" x2="99.49" y2="51.78"/>
    <line class="cls-1" x1="99.25" y1="46.83" x2="109.62" y2="48.61"/>
    <line class="cls-1" x1="109.28" y1="43.82" x2="98.01" y2="41.67"/>
    <line class="cls-1" x1="108.93" y1="39.01" x2="97.81" y2="37.22"/>
    <line class="cls-1" x1="97.67" y1="32.31" x2="108.61" y2="34.56"/>
    <line class="cls-1" x1="109.15" y1="30.07" x2="97.54" y2="27.69"/>
    <line class="cls-1" x1="97.41" y1="22.97" x2="107.08" y2="25.08"/>
    <line class="cls-1" x1="97.27" y1="18.29" x2="106.15" y2="20.11"/>
    <polyline class="cls-1" points="106.82 15.82 97.13 13.3 85.05 11.14 86.31 39.68 86.41 42.16 98.01 44.24 97.13 13.3 95.43 14.12 96.41 44"/>
    <polyline class="cls-1" points="65.62 38.12 76.15 37.57 86.31 39.68"/>
    <polyline class="cls-1" points="86.09 34.8 75.32 32.5 65.4 33.17"/>
    <polyline class="cls-1" points="65.18 28.19 75.57 27.55 85.88 29.99"/>
    <line class="cls-1" x1="64.76" y1="18.52" x2="72.88" y2="18.27"/>
    <line class="cls-1" x1="77.8" y1="18.62" x2="85.46" y2="20.34"/>
    <line class="cls-1" x1="85.24" y1="15.46" x2="80.06" y2="14.21"/>
    <line class="cls-1" x1="64.54" y1="13.39" x2="70.73" y2="13.66"/>
    <line class="cls-1" x1="64.16" y1="8.7" x2="70.95" y2="8.78"/>
    <line class="cls-1" x1="78.88" y1="9.21" x2="85.05" y2="11.14"/>
    <path class="cls-2" d="M106.18,20.5s2.59-1.76,2.74-1.66,6.1,1.88,6.1,1.88l.51-.94-6.03-2.92-3.45,1.93.13,1.71Z"/>
    <polyline class="cls-2" points="106.18 20.5 106.4 22.48 109.72 20.56 114.35 22.16 115.02 20.72"/>
    <path class="cls-5" d="M31.15,17.66c.02.2.01.41-.02.61"/>
    <path class="cls-5" d="M31.31,18.87c.02.16,0,.32-.03.48"/>
    <path class="cls-5" d="M31.25,19.9c-.06.08-.16.14-.26.15"/>
    <path class="cls-5" d="M31.54,18.21c-.34.2-.56.58-.56.97.08,0,.17-.02.23-.07"/>
    <g id="tete">
      <polyline class="cls-2" points="24.8 18.76 24.06 19.1 24.06 17.14 23.09 16.16 30.33 13.31 33.39 15.15 33.39 17.95 30.84 17.08 24.8 18.76"/>
      <polyline class="cls-2" points="24.06 17.14 30.41 15.15 33.39 16.2"/>
      <path class="cls-3" d="M28.53,21.38s.68-.55,1.17,0-1.43.47-1.17,0Z"/>
      <path class="cls-3" d="M27.4,24.54c-.29.2,1.06-1.66,2.43-.11.48.54-2.76.46-2.43.11Z"/>
      <path class="cls-3" d="M26.53,22.01c-.67-.32,1.13-.99,1.08-.46"/>
      <path class="cls-5" d="M27.91,21.45s.06,1.08-.21,1.19,0,.65.11.56.43-.13.43-.13"/>
      <path class="cls-5" d="M31.78,17.4s.02,1.19.02,2.64c.01,2.25,0,5.13-.13,5.17-.35.11-1.66,4.44-3.56,1.6-1.9-2.84-2.3-1.51-2.22-3.6s.1-4.79.1-4.79"/>
      <path class="cls-5" d="M31.81,21.69c.84.26.79-1.9.79-1.9,0,0-.79-.16-.79.73,0,.53.36-.29.36-.29l-.36,1.05h.28s.34-.78.11-.72"/>
      <path class="cls-5" d="M27.25,18.94c-.25.75-.3,1.16-.16,1.24.1.06.3-.06.61-.35"/>
      <path class="cls-5" d="M27.99,18.52c-.16.18-.27.4-.32.64"/>
      <path class="cls-5" d="M28.37,18.87c-.1.22-.16.46-.16.7"/>
      <path class="cls-5" d="M29.19,19c-.06.16-.07.35-.04.52"/>
      <path class="cls-5" d="M30.06,18.52c-.13.2-.21.44-.22.68"/>
      <path class="cls-5" d="M30.54,18.52c-.16.16-.24.41-.19.64"/>
      <path class="cls-5" d="M29.8,17.74c-.19.15-.33.36-.4.59"/>
      <path class="cls-5" d="M28.49,18.78c-.06-.01-.08-.08-.06-.14s.06-.1.1-.13l.44-.4c-.14.05-.36.31-.42.45s-.06.29-.07.44c0,.04,0,.08.02.12s-.04-.3-.02-.33Z"/>
      <path class="cls-5" d="M29.13,18.44c-.38.36-.51.97-.3,1.45.01.03.03.07.06.09.06.04.14,0,.21-.05.22-.16.43-.33.62-.52"/>
      <path class="cls-5" d="M30.19,19.06c-.15.15-.32.31-.53.35-.05.01-.11.01-.16,0-.11-.04-.16-.18-.17-.3-.04-.38.13-.78.42-1.02-.2.31-.24.77-.19,1.14,0,.08.03.17.1.2.03.01.07.01.11,0,.25-.04.27-.15.41-.36Z"/>
      <path class="cls-5" d="M27.82,19.42c-.15.15-.32.31-.53.35-.05.01-.11.01-.16,0-.11-.04-.16-.18-.17-.3-.04-.38.13-.78.42-1.02-.2.31-.24.77-.19,1.14,0,.08.03.17.1.2.03.01.07.01.11,0,.25-.04.27-.15.41-.36Z"/>
      <path class="cls-5" d="M27.7,19.43c-.15.15-.32.31-.53.35-.05.01-.11.01-.16,0-.11-.04-.16-.18-.17-.3-.04-.38.13-.78.42-1.02-.2.31-.24.77-.19,1.14,0,.08.03.17.1.2.03.01.07.01.11,0,.25-.04.27-.15.41-.36Z"/>
      <path class="cls-5" d="M30.13,18.3c-.17.32-.25.68-.23,1.04,0,.05,0,.1.05.13.04.03.09.02.14,0,.14-.04.27-.13.36-.25"/>
      <path class="cls-5" d="M30.86,18.07c-.33.44-.5.99-.47,1.54.25,0,.48-.13.63-.32s.24-.43.31-.67"/>
      <path class="cls-5" d="M30.22,18.11c-.34.2-.56.58-.56.97.08,0,.17-.02.23-.07"/>
      <path class="cls-5" d="M27.9,18.47c-.52.21-1.72.33-1.84,1.02-.1.57.35.68.81.55.41-.11.72-.42,1.03-.7"/>
      <path class="cls-5" d="M26.87,19.1c-.22.15-.33.43-.28.7.21.04.43,0,.6-.12"/>
      <path class="cls-5" d="M27.56,18.91c-.25.13-.46.32-.62.55-.05.07-.08.17-.02.22.03.02.07.03.1.03.21,0,.42,0,.63-.03"/>
      <path class="cls-5" d="M28.47,19.52c-.13,0-.25.06-.37.07s-.29-.05-.28-.18c0-.06.03-.1.07-.15.18-.23.4-.44.65-.59-.21.2-.31.63-.36.92,0,.06-.01.13.03.17.05.05.12.05.19.03.25-.04.49-.13.71-.26"/>
      <path class="cls-5" d="M27.37,19.52c-.13,0-.25.06-.37.07s-.29-.05-.28-.18c0-.06.03-.1.07-.15.18-.23.4-.44.65-.59-.21.2-.31.63-.36.92,0,.06-.01.13.03.17.05.05.12.05.19.03.25-.04.49-.13.71-.26"/>
      <path class="cls-5" d="M29.88,18.3c-.3.28-.46.7-.42,1.11.39.07.75-.2,1.05-.45"/>
      <path class="cls-5" d="M30.62,17.72c-.3.28-.46.7-.42,1.11.39.07.75-.2,1.05-.45"/>
      <path class="cls-5" d="M30.54,18.36c-.14.2-.21.46-.18.7,0,.04.01.08.03.11.03.04.1.06.15.06.24.01.46-.11.67-.23"/>
      <path class="cls-5" d="M31.03,18.43c-.31.33-.53.74-.66,1.17"/>
      <path class="cls-5" d="M30.54,19.96c-.23.11-.52-.11-.37-.37"/>
      <path class="cls-5" d="M29.36,19.16c-.35.26-.58.68-.61,1.12.05,0,.11-.02.16-.03"/>
      <path class="cls-5" d="M28.82,19.23c-.13.17-.19.39-.17.6,0,.04.01.08.04.11.04.05.1.06.16.06.25.02.5-.02.73-.1"/>
      <path class="cls-5" d="M30.1,20.19c-.59.13-1.17.35-1.78.42s-1.19-.01-1.76-.09"/>
      <path class="cls-5" d="M27.67,20.06l.35.09"/>
      <path class="cls-5" d="M28.21,20.25c.32.1.66.13.99.09"/>
      <path class="cls-5" d="M30.1,19.86l.76.17"/>
      <path class="cls-5" d="M30.67,17.74c-.35-.03-.71-.03-1.06,0"/>
      <path class="cls-5" d="M27.59,18.26c-.28.14-.54.32-.77.53"/>
      <path class="cls-5" d="M28.22,18.31l-.15.09c.55-.3,1.11-.57,1.68-.8"/>
      <path class="cls-5" d="M27.8,18.17c.3-.16.61-.3.93-.41"/>
      <path class="cls-5" d="M30.7,17.4c.07.09.22.06.3.14.11.1.01.29.05.44"/>
      <path class="cls-5" d="M27.84,19.27c-.06-.01-.08-.08-.06-.14s.06-.1.1-.13l.44-.4c-.14.05-.36.31-.42.45s-.06.29-.07.44c0,.04,0,.08.02.12s-.04-.3-.02-.33Z"/>
      <path class="cls-5" d="M29.57,18.6c-.34.2-.56.58-.56.97.08,0,.17-.02.23-.07"/>
      <path class="cls-5" d="M26.9,19.4c-.25.13-.46.32-.62.55-.05.07-.08.17-.02.22.03.02.07.03.1.03.21,0,.42,0,.63-.03"/>
      <path class="cls-5" d="M27.81,20.02c-.13,0-.25.06-.37.07s-.29-.05-.28-.18c0-.06.03-.1.07-.15.18-.23.4-.44.65-.59-.21.2-.31.63-.36.92,0,.06-.01.13.03.17.05.05.12.05.19.03.25-.04.49-.13.71-.26"/>
      <path class="cls-5" d="M27.78,20.47c-.13,0-.25.06-.37.07s-.29-.05-.28-.18c0-.06.03-.1.07-.15.18-.23.4-.44.65-.59-.21.2-.31.63-.36.92,0,.06-.01.13.03.17.05.05.12.05.19.03.25-.04.49-.13.71-.26"/>
      <path class="cls-5" d="M29,19.23c-.06-.01-.08-.08-.06-.14s.06-.1.1-.13l.44-.4c-.14.05-.36.31-.42.45s-.06.29-.07.44c0,.04,0,.08.02.12s-.04-.3-.02-.33Z"/>
      <path class="cls-5" d="M30.72,18.55c-.34.2-.56.58-.56.97.08,0,.17-.02.23-.07"/>
      <path class="cls-5" d="M28.06,19.36c-.25.13-.46.32-.62.55-.05.07-.08.17-.02.22.03.02.07.03.1.03.21,0,.42,0,.63-.03"/>
      <path class="cls-5" d="M28.97,19.97c-.13,0-.25.06-.37.07s-.29-.05-.28-.18c0-.06.03-.1.07-.15.18-.23.4-.44.65-.59-.21.2-.31.63-.36.92,0,.06-.01.13.03.17.05.05.12.05.19.03.25-.04.49-.13.71-.26"/>
      <path class="cls-5" d="M29.81,18.88c-.06-.01-.08-.08-.06-.14s.06-.1.1-.13l.44-.4c-.14.05-.36.31-.42.45s-.06.29-.07.44c0,.04,0,.08.02.12s-.04-.3-.02-.33Z"/>
      <path class="cls-5" d="M28.88,19.01c-.25.13-.46.32-.62.55-.05.07-.08.17-.02.22.03.02.07.03.1.03.21,0,.42,0,.63-.03"/>
      <path class="cls-5" d="M29.79,19.62c-.13,0-.25.06-.37.07s-.29-.05-.28-.18c0-.06.03-.1.07-.15.18-.23.4-.44.65-.59-.21.2-.31.63-.36.92,0,.06-.01.13.03.17.05.05.12.05.19.03.25-.04.49-.13.71-.26"/>
      <path class="cls-5" d="M29.42,25.93c-.13.1-.23.24-.28.4"/>
      <path class="cls-5" d="M29.88,26.08c-.17.12-.32.26-.45.43-.02.03-.04.08,0,.09"/>
      <path class="cls-5" d="M30.95,25.37c-.3.14-.56.36-.76.63"/>
      <path class="cls-5" d="M30.06,26.14c-.2.2-.35.46-.43.73"/>
      <path class="cls-5" d="M29.97,26.72c-.07.01-.12.09-.1.16"/>
      <path class="cls-5" d="M30.93,25.95c-.17.12-.38.19-.47.38l-.09.19c.09,0,.17-.03.24-.09"/>
      <path class="cls-5" d="M30.08,26.01c-.14.1-.26.24-.33.4"/>
      <path class="cls-5" d="M29.1,26.82s-.08.05-.11.07-.1.03-.12-.02c0-.02,0-.03,0-.05.02-.14.05-.28.11-.41"/>
      <path class="cls-5" d="M28.5,26.65c-.07.14-.15.3-.11.46.03.11.13.21.24.23s.24-.02.32-.11"/>
      <path class="cls-5" d="M29,27.1c-.04.11-.07.26.03.34.03.03.08.04.12.04.31.04.63-.06.86-.28"/>
      <path class="cls-5" d="M29.2,27.2c.26.05.54,0,.77-.14"/>
      <path class="cls-5" d="M29.48,26.88s-.05.04-.04.06"/>
      <path class="cls-5" d="M28.71,25.67c-.13.17-.21.37-.24.57"/>
      <path class="cls-5" d="M28.22,25.82c-.08.13-.12.28-.11.42.02,0,.04,0,.06,0"/>
      <path class="cls-5" d="M28.03,25.78c-.08.17-.12.36-.12.55,0,.05,0,.1.03.14.07.11.23.09.35.05"/>
      <path class="cls-5" d="M28.46,26.27c-.05.04-.08.12-.06.19.09.01.18-.01.25-.06"/>
      <path class="cls-5" d="M29.01,25.84s-.05.08-.05.12c.07,0,.14,0,.21,0"/>
      <path class="cls-5" d="M29.5,25.57c-.08.04-.14.11-.17.18.09,0,.17,0,.26-.02"/>
      <path class="cls-5" d="M30.29,25.25s-.08.1-.11.15c.06,0,.12,0,.17-.03"/>
      <path class="cls-5" d="M31.03,25.18c-.08.09-.26.09-.33.18-.05.06-.08.13-.09.21.09.01.15-.06.24-.08-.09,0-.19,0-.28,0-.02,0-.04,0-.06-.01-.03-.02-.01-.07,0-.1l.1-.19"/>
      <path class="cls-5" d="M28.86,25.5l-.04.08"/>
      <path class="cls-5" d="M28.57,25.7c-.06.01-.11.09-.08.15s.1.09.16.06"/>
      <path class="cls-5" d="M30.42,26.42l-.06.17"/>
    </g>
    <g id="tete-2" data-name="tete">
      <polyline class="cls-2" points="71.47 15.27 70.73 15.61 70.73 13.66 69.76 12.68 77 9.83 80.06 11.67 80.06 14.47 77.51 13.6 71.47 15.27"/>
      <polyline class="cls-2" points="70.73 13.66 77.09 11.67 80.06 12.72"/>
      <path class="cls-3" d="M75.2,17.9s.68-.55,1.17,0-1.43.47-1.17,0Z"/>
      <path class="cls-3" d="M74.07,21.06c-.29.2,1.06-1.66,2.43-.11.48.54-2.76.46-2.43.11Z"/>
      <path class="cls-3" d="M73.2,18.53c-.67-.32,1.13-.99,1.08-.46"/>
      <path class="cls-5" d="M74.58,17.97s.06,1.08-.21,1.19,0,.65.11.56.43-.13.43-.13"/>
      <path class="cls-5" d="M78.45,13.92s.02,1.19.02,2.64c.01,2.25,0,5.13-.13,5.17-.35.11-1.66,4.44-3.56,1.6-1.9-2.84-2.3-1.51-2.22-3.6s.1-4.79.1-4.79"/>
      <path class="cls-5" d="M78.48,18.2c.84.26.79-1.9.79-1.9,0,0-.79-.16-.79.73,0,.53.36-.29.36-.29l-.36,1.05h.28s.34-.78.11-.72"/>
      <path class="cls-5" d="M73.93,15.45c-.25.75-.3,1.16-.16,1.24.1.06.3-.06.61-.35"/>
      <path class="cls-5" d="M74.66,15.04c-.16.18-.27.4-.32.64"/>
      <path class="cls-5" d="M75.04,15.39c-.1.22-.16.46-.16.7"/>
      <path class="cls-5" d="M75.86,15.52c-.06.16-.07.35-.04.52"/>
      <path class="cls-5" d="M76.73,15.03c-.13.2-.21.44-.22.68"/>
      <path class="cls-5" d="M77.21,15.04c-.16.16-.24.41-.19.64"/>
      <path class="cls-5" d="M76.47,14.26c-.19.15-.33.36-.4.59"/>
      <path class="cls-5" d="M75.17,15.3c-.06-.01-.08-.08-.06-.14s.06-.1.1-.13l.44-.4c-.14.05-.36.31-.42.45s-.06.29-.07.44c0,.04,0,.08.02.12s-.04-.3-.02-.33Z"/>
      <path class="cls-5" d="M75.8,14.96c-.38.36-.51.97-.3,1.45.01.03.03.07.06.09.06.04.14,0,.21-.05.22-.16.43-.33.62-.52"/>
      <path class="cls-5" d="M76.86,15.58c-.15.15-.32.31-.53.35-.05.01-.11.01-.16,0-.11-.04-.16-.18-.17-.3-.04-.38.13-.78.42-1.02-.2.31-.24.77-.19,1.14,0,.08.03.17.1.2.03.01.07.01.11,0,.25-.04.27-.15.41-.36Z"/>
      <path class="cls-5" d="M74.49,15.93c-.15.15-.32.31-.53.35-.05.01-.11.01-.16,0-.11-.04-.16-.18-.17-.3-.04-.38.13-.78.42-1.02-.2.31-.24.77-.19,1.14,0,.08.03.17.1.2.03.01.07.01.11,0,.25-.04.27-.15.41-.36Z"/>
      <path class="cls-5" d="M74.38,15.95c-.15.15-.32.31-.53.35-.05.01-.11.01-.16,0-.11-.04-.16-.18-.17-.3-.04-.38.13-.78.42-1.02-.2.31-.24.77-.19,1.14,0,.08.03.17.1.2.03.01.07.01.11,0,.25-.04.27-.15.41-.36Z"/>
      <path class="cls-5" d="M76.8,14.82c-.17.32-.25.68-.23,1.04,0,.05,0,.1.05.13.04.03.09.02.14,0,.14-.04.27-.13.36-.25"/>
      <path class="cls-5" d="M77.53,14.59c-.33.44-.5.99-.47,1.54.25,0,.48-.13.63-.32s.24-.43.31-.67"/>
      <path class="cls-5" d="M76.89,14.62c-.34.2-.56.58-.56.97.08,0,.17-.02.23-.07"/>
      <path class="cls-5" d="M74.57,14.99c-.52.21-1.72.33-1.84,1.02-.1.57.35.68.81.55.41-.11.72-.42,1.03-.7"/>
      <path class="cls-5" d="M73.54,15.62c-.22.15-.33.43-.28.7.21.04.43,0,.6-.12"/>
      <path class="cls-5" d="M74.23,15.42c-.25.13-.46.32-.62.55-.05.07-.08.17-.02.22.03.02.07.03.1.03.21,0,.42,0,.63-.03"/>
      <path class="cls-5" d="M75.14,16.04c-.13,0-.25.06-.37.07s-.29-.05-.28-.18c0-.06.03-.1.07-.15.18-.23.4-.44.65-.59-.21.2-.31.63-.36.92,0,.06-.01.13.03.17.05.05.12.05.19.03.25-.04.49-.13.71-.26"/>
      <path class="cls-5" d="M74.04,16.04c-.13,0-.25.06-.37.07s-.29-.05-.28-.18c0-.06.03-.1.07-.15.18-.23.4-.44.65-.59-.21.2-.31.63-.36.92,0,.06-.01.13.03.17.05.05.12.05.19.03.25-.04.49-.13.71-.26"/>
      <path class="cls-5" d="M76.55,14.82c-.3.28-.46.7-.42,1.11.39.07.75-.2,1.05-.45"/>
      <path class="cls-5" d="M77.29,14.23c-.3.28-.46.7-.42,1.11.39.07.75-.2,1.05-.45"/>
      <path class="cls-5" d="M77.21,14.88c-.14.2-.21.46-.18.7,0,.04.01.08.03.11.03.04.1.06.15.06.24.01.46-.11.67-.23"/>
      <path class="cls-5" d="M77.7,14.95c-.31.33-.53.74-.66,1.17"/>
      <path class="cls-5" d="M77.21,16.48c-.23.11-.52-.11-.37-.37"/>
      <path class="cls-5" d="M76.03,15.68c-.35.26-.58.68-.61,1.12.05,0,.11-.02.16-.03"/>
      <path class="cls-5" d="M75.49,15.74c-.13.17-.19.39-.17.6,0,.04.01.08.04.11.04.05.1.06.16.06.25.02.5-.02.73-.1"/>
      <path class="cls-5" d="M76.77,16.7c-.59.13-1.17.35-1.78.42s-1.19-.01-1.76-.09"/>
      <path class="cls-5" d="M74.34,16.57l.35.09"/>
      <path class="cls-5" d="M74.88,16.77c.32.1.66.13.99.09"/>
      <path class="cls-5" d="M76.77,16.37l.76.17"/>
      <path class="cls-5" d="M77.34,14.26c-.35-.03-.71-.03-1.06,0"/>
      <path class="cls-5" d="M74.26,14.78c-.28.14-.54.32-.77.53"/>
      <path class="cls-5" d="M74.89,14.83l-.15.09c.55-.3,1.11-.57,1.68-.8"/>
      <path class="cls-5" d="M74.47,14.69c.3-.16.61-.3.93-.41"/>
      <path class="cls-5" d="M77.37,13.92c.07.09.22.06.3.14.11.1.01.29.05.44"/>
      <path class="cls-5" d="M74.51,15.79c-.06-.01-.08-.08-.06-.14s.06-.1.1-.13l.44-.4c-.14.05-.36.31-.42.45s-.06.29-.07.44c0,.04,0,.08.02.12s-.04-.3-.02-.33Z"/>
      <path class="cls-5" d="M76.24,15.12c-.34.2-.56.58-.56.97.08,0,.17-.02.23-.07"/>
      <path class="cls-5" d="M73.57,15.92c-.25.13-.46.32-.62.55-.05.07-.08.17-.02.22.03.02.07.03.1.03.21,0,.42,0,.63-.03"/>
      <path class="cls-5" d="M74.48,16.54c-.13,0-.25.06-.37.07s-.29-.05-.28-.18c0-.06.03-.1.07-.15.18-.23.4-.44.65-.59-.21.2-.31.63-.36.92,0,.06-.01.13.03.17.05.05.12.05.19.03.25-.04.49-.13.71-.26"/>
      <path class="cls-5" d="M74.45,16.98c-.13,0-.25.06-.37.07s-.29-.05-.28-.18c0-.06.03-.1.07-.15.18-.23.4-.44.65-.59-.21.2-.31.63-.36.92,0,.06-.01.13.03.17.05.05.12.05.19.03.25-.04.49-.13.71-.26"/>
      <path class="cls-5" d="M75.67,15.74c-.06-.01-.08-.08-.06-.14s.06-.1.1-.13l.44-.4c-.14.05-.36.31-.42.45s-.06.29-.07.44c0,.04,0,.08.02.12s-.04-.3-.02-.33Z"/>
      <path class="cls-5" d="M77.4,15.07c-.34.2-.56.58-.56.97.08,0,.17-.02.23-.07"/>
      <path class="cls-5" d="M74.73,15.87c-.25.13-.46.32-.62.55-.05.07-.08.17-.02.22.03.02.07.03.1.03.21,0,.42,0,.63-.03"/>
      <path class="cls-5" d="M75.64,16.49c-.13,0-.25.06-.37.07s-.29-.05-.28-.18c0-.06.03-.1.07-.15.18-.23.4-.44.65-.59-.21.2-.31.63-.36.92,0,.06-.01.13.03.17.05.05.12.05.19.03.25-.04.49-.13.71-.26"/>
      <path class="cls-5" d="M76.48,15.39c-.06-.01-.08-.08-.06-.14s.06-.1.1-.13l.44-.4c-.14.05-.36.31-.42.45s-.06.29-.07.44c0,.04,0,.08.02.12s-.04-.3-.02-.33Z"/>
      <path class="cls-5" d="M75.55,15.52c-.25.13-.46.32-.62.55-.05.07-.08.17-.02.22.03.02.07.03.1.03.21,0,.42,0,.63-.03"/>
      <path class="cls-5" d="M76.46,16.14c-.13,0-.25.06-.37.07s-.29-.05-.28-.18c0-.06.03-.1.07-.15.18-.23.4-.44.65-.59-.21.2-.31.63-.36.92,0,.06-.01.13.03.17.05.05.12.05.19.03.25-.04.49-.13.71-.26"/>
      <path class="cls-5" d="M76.09,22.45c-.13.1-.23.24-.28.4"/>
      <path class="cls-5" d="M76.55,22.59c-.17.12-.32.26-.45.43-.02.03-.04.08,0,.09"/>
      <path class="cls-5" d="M77.62,21.89c-.3.14-.56.36-.76.63"/>
      <path class="cls-5" d="M76.73,22.66c-.2.2-.35.46-.43.73"/>
      <path class="cls-5" d="M76.64,23.24c-.07.01-.12.09-.1.16"/>
      <path class="cls-5" d="M77.6,22.47c-.17.12-.38.19-.47.38l-.09.19c.09,0,.17-.03.24-.09"/>
      <path class="cls-5" d="M76.75,22.53c-.14.1-.26.24-.33.4"/>
      <path class="cls-5" d="M75.77,23.34s-.08.05-.11.07-.1.03-.12-.02c0-.02,0-.03,0-.05.02-.14.05-.28.11-.41"/>
      <path class="cls-5" d="M75.17,23.17c-.07.14-.15.3-.11.46.03.11.13.21.24.23s.24-.02.32-.11"/>
      <path class="cls-5" d="M75.67,23.62c-.04.11-.07.26.03.34.03.03.08.04.12.04.31.04.63-.06.86-.28"/>
      <path class="cls-5" d="M75.87,23.72c.26.05.54,0,.77-.14"/>
      <path class="cls-5" d="M76.15,23.4s-.05.04-.04.06"/>
      <path class="cls-5" d="M75.38,22.19c-.13.17-.21.37-.24.57"/>
      <path class="cls-5" d="M74.89,22.34c-.08.13-.12.28-.11.42.02,0,.04,0,.06,0"/>
      <path class="cls-5" d="M74.7,22.3c-.08.17-.12.36-.12.55,0,.05,0,.1.03.14.07.11.23.09.35.05"/>
      <path class="cls-5" d="M75.13,22.79c-.05.04-.08.12-.06.19.09.01.18-.01.25-.06"/>
      <path class="cls-5" d="M75.68,22.36s-.05.08-.05.12c.07,0,.14,0,.21,0"/>
      <path class="cls-5" d="M76.17,22.09c-.08.04-.14.11-.17.18.09,0,.17,0,.26-.02"/>
      <path class="cls-5" d="M76.96,21.76s-.08.1-.11.15c.06,0,.12,0,.17-.03"/>
      <path class="cls-5" d="M77.7,21.69c-.08.09-.26.09-.33.18-.05.06-.08.13-.09.21.09.01.15-.06.24-.08-.09,0-.19,0-.28,0-.02,0-.04,0-.06-.01-.03-.02-.01-.07,0-.1l.1-.19"/>
      <path class="cls-5" d="M75.53,22.02l-.04.08"/>
      <path class="cls-5" d="M75.24,22.22c-.06.01-.11.09-.08.15s.1.09.16.06"/>
      <path class="cls-5" d="M77.09,22.93l-.06.17"/>
    </g>
    <g id="tete-3" data-name="tete">
      <path class="cls-3" d="M109.56,24.65s.68-.55,1.17,0-1.43.47-1.17,0Z"/>
      <path class="cls-3" d="M108.43,27.81c-.29.2,1.06-1.66,2.43-.11.48.54-2.76.46-2.43.11Z"/>
      <path class="cls-3" d="M107.56,25.28c-.67-.32,1.13-.99,1.08-.46"/>
      <path class="cls-5" d="M108.94,24.72s.06,1.08-.21,1.19,0,.65.11.56.43-.13.43-.13"/>
      <path class="cls-5" d="M112.82,20.67s.02,1.19.02,2.64c.01,2.25,0,5.13-.13,5.17-.35.11-1.66,4.44-3.56,1.6-1.9-2.84-2.3-1.51-2.22-3.6s.1-4.79.1-4.79"/>
      <path class="cls-5" d="M112.84,24.96c.84.26.79-1.9.79-1.9,0,0-.79-.16-.79.73,0,.53.36-.29.36-.29l-.36,1.05h.28s.34-.78.11-.72"/>
      <path class="cls-5" d="M108.29,22.2c-.25.75-.3,1.16-.16,1.24.1.06.3-.06.61-.35"/>
      <path class="cls-5" d="M109.02,21.79c-.16.18-.27.4-.32.64"/>
      <path class="cls-5" d="M109.4,22.14c-.1.22-.16.46-.16.7"/>
      <path class="cls-5" d="M110.23,22.27c-.06.16-.07.35-.04.52"/>
      <path class="cls-5" d="M111.09,21.78c-.13.2-.21.44-.22.68"/>
      <path class="cls-5" d="M111.58,21.79c-.16.16-.24.41-.19.64"/>
      <path class="cls-5" d="M110.83,21.01c-.19.15-.33.36-.4.59"/>
      <path class="cls-5" d="M109.53,22.05c-.06-.01-.08-.08-.06-.14s.06-.1.1-.13l.44-.4c-.14.05-.36.31-.42.45s-.06.29-.07.44c0,.04,0,.08.02.12s-.04-.3-.02-.33Z"/>
      <path class="cls-5" d="M110.16,21.71c-.38.36-.51.97-.3,1.45.01.03.03.07.06.09.06.04.14,0,.21-.05.22-.16.43-.33.62-.52"/>
      <path class="cls-5" d="M111.22,22.33c-.15.15-.32.31-.53.35-.05.01-.11.01-.16,0-.11-.04-.16-.18-.17-.3-.04-.38.13-.78.42-1.02-.2.31-.24.77-.19,1.14,0,.08.03.17.1.2.03.01.07.01.11,0,.25-.04.27-.15.41-.36Z"/>
      <path class="cls-5" d="M108.85,22.68c-.15.15-.32.31-.53.35-.05.01-.11.01-.16,0-.11-.04-.16-.18-.17-.3-.04-.38.13-.78.42-1.02-.2.31-.24.77-.19,1.14,0,.08.03.17.1.2.03.01.07.01.11,0,.25-.04.27-.15.41-.36Z"/>
      <path class="cls-5" d="M108.74,22.7c-.15.15-.32.31-.53.35-.05.01-.11.01-.16,0-.11-.04-.16-.18-.17-.3-.04-.38.13-.78.42-1.02-.2.31-.24.77-.19,1.14,0,.08.03.17.1.2.03.01.07.01.11,0,.25-.04.27-.15.41-.36Z"/>
      <path class="cls-5" d="M111.17,21.57c-.17.32-.25.68-.23,1.04,0,.05,0,.1.05.13.04.03.09.02.14,0,.14-.04.27-.13.36-.25"/>
      <path class="cls-5" d="M111.89,21.34c-.33.44-.5.99-.47,1.54.25,0,.48-.13.63-.32s.24-.43.31-.67"/>
      <path class="cls-5" d="M111.26,21.37c-.34.2-.56.58-.56.97.08,0,.17-.02.23-.07"/>
      <path class="cls-5" d="M108.93,21.74c-.52.21-1.72.33-1.84,1.02-.1.57.35.68.81.55.41-.11.72-.42,1.03-.7"/>
      <path class="cls-5" d="M107.91,22.37c-.22.15-.33.43-.28.7.21.04.43,0,.6-.12"/>
      <path class="cls-5" d="M108.59,22.17c-.25.13-.46.32-.62.55-.05.07-.08.17-.02.22.03.02.07.03.1.03.21,0,.42,0,.63-.03"/>
      <path class="cls-5" d="M109.5,22.79c-.13,0-.25.06-.37.07s-.29-.05-.28-.18c0-.06.03-.1.07-.15.18-.23.4-.44.65-.59-.21.2-.31.63-.36.92,0,.06-.01.13.03.17.05.05.12.05.19.03.25-.04.49-.13.71-.26"/>
      <path class="cls-5" d="M108.4,22.79c-.13,0-.25.06-.37.07s-.29-.05-.28-.18c0-.06.03-.1.07-.15.18-.23.4-.44.65-.59-.21.2-.31.63-.36.92,0,.06-.01.13.03.17.05.05.12.05.19.03.25-.04.49-.13.71-.26"/>
      <path class="cls-5" d="M110.91,21.57c-.3.28-.46.7-.42,1.11.39.07.75-.2,1.05-.45"/>
      <path class="cls-5" d="M111.66,20.98c-.3.28-.46.7-.42,1.11.39.07.75-.2,1.05-.45"/>
      <path class="cls-5" d="M111.57,21.63c-.14.2-.21.46-.18.7,0,.04.01.08.03.11.03.04.1.06.15.06.24.01.46-.11.67-.23"/>
      <path class="cls-5" d="M112.06,21.7c-.31.33-.53.74-.66,1.17"/>
      <path class="cls-5" d="M111.58,23.23c-.23.11-.52-.11-.37-.37"/>
      <path class="cls-5" d="M110.39,22.43c-.35.26-.58.68-.61,1.12.05,0,.11-.02.16-.03"/>
      <path class="cls-5" d="M109.85,22.49c-.13.17-.19.39-.17.6,0,.04.01.08.04.11.04.05.1.06.16.06.25.02.5-.02.73-.1"/>
      <path class="cls-5" d="M111.13,23.45c-.59.13-1.17.35-1.78.42s-1.19-.01-1.76-.09"/>
      <path class="cls-5" d="M108.7,23.32l.35.09"/>
      <path class="cls-5" d="M109.25,23.52c.32.1.66.13.99.09"/>
      <path class="cls-5" d="M111.13,23.12l.76.17"/>
      <path class="cls-5" d="M111.7,21.01c-.35-.03-.71-.03-1.06,0"/>
      <path class="cls-5" d="M108.62,21.53c-.28.14-.54.32-.77.53"/>
      <path class="cls-5" d="M109.25,21.58l-.15.09c.55-.3,1.11-.57,1.68-.8"/>
      <path class="cls-5" d="M108.83,21.44c.3-.16.61-.3.93-.41"/>
      <path class="cls-5" d="M111.74,20.67c.07.09.22.06.3.14.11.1.01.29.05.44"/>
      <path class="cls-5" d="M108.87,22.54c-.06-.01-.08-.08-.06-.14s.06-.1.1-.13l.44-.4c-.14.05-.36.31-.42.45s-.06.29-.07.44c0,.04,0,.08.02.12s-.04-.3-.02-.33Z"/>
      <path class="cls-5" d="M110.6,21.87c-.34.2-.56.58-.56.97.08,0,.17-.02.23-.07"/>
      <path class="cls-5" d="M107.93,22.67c-.25.13-.46.32-.62.55-.05.07-.08.17-.02.22.03.02.07.03.1.03.21,0,.42,0,.63-.03"/>
      <path class="cls-5" d="M108.84,23.29c-.13,0-.25.06-.37.07s-.29-.05-.28-.18c0-.06.03-.1.07-.15.18-.23.4-.44.65-.59-.21.2-.31.63-.36.92,0,.06-.01.13.03.17.05.05.12.05.19.03.25-.04.49-.13.71-.26"/>
      <path class="cls-5" d="M108.81,23.73c-.13,0-.25.06-.37.07s-.29-.05-.28-.18c0-.06.03-.1.07-.15.18-.23.4-.44.65-.59-.21.2-.31.63-.36.92,0,.06-.01.13.03.17.05.05.12.05.19.03.25-.04.49-.13.71-.26"/>
      <path class="cls-5" d="M110.03,22.49c-.06-.01-.08-.08-.06-.14s.06-.1.1-.13l.44-.4c-.14.05-.36.31-.42.45s-.06.29-.07.44c0,.04,0,.08.02.12s-.04-.3-.02-.33Z"/>
      <path class="cls-5" d="M111.76,21.82c-.34.2-.56.58-.56.97.08,0,.17-.02.23-.07"/>
      <path class="cls-5" d="M109.09,22.62c-.25.13-.46.32-.62.55-.05.07-.08.17-.02.22.03.02.07.03.1.03.21,0,.42,0,.63-.03"/>
      <path class="cls-5" d="M110,23.24c-.13,0-.25.06-.37.07s-.29-.05-.28-.18c0-.06.03-.1.07-.15.18-.23.4-.44.65-.59-.21.2-.31.63-.36.92,0,.06-.01.13.03.17.05.05.12.05.19.03.25-.04.49-.13.71-.26"/>
      <path class="cls-5" d="M110.85,22.14c-.06-.01-.08-.08-.06-.14s.06-.1.1-.13l.44-.4c-.14.05-.36.31-.42.45s-.06.29-.07.44c0,.04,0,.08.02.12s-.04-.3-.02-.33Z"/>
      <path class="cls-5" d="M109.91,22.27c-.25.13-.46.32-.62.55-.05.07-.08.17-.02.22.03.02.07.03.1.03.21,0,.42,0,.63-.03"/>
      <path class="cls-5" d="M110.82,22.89c-.13,0-.25.06-.37.07s-.29-.05-.28-.18c0-.06.03-.1.07-.15.18-.23.4-.44.65-.59-.21.2-.31.63-.36.92,0,.06-.01.13.03.17.05.05.12.05.19.03.25-.04.49-.13.71-.26"/>
      <path class="cls-5" d="M110.45,29.2c-.13.1-.23.24-.28.4"/>
      <path class="cls-5" d="M110.92,29.34c-.17.12-.32.26-.45.43-.02.03-.04.08,0,.09"/>
      <path class="cls-5" d="M111.98,28.64c-.3.14-.56.36-.76.63"/>
      <path class="cls-5" d="M111.09,29.41c-.2.2-.35.46-.43.73"/>
      <path class="cls-5" d="M111,29.99c-.07.01-.12.09-.1.16"/>
      <path class="cls-5" d="M111.96,29.22c-.17.12-.38.19-.47.38l-.09.19c.09,0,.17-.03.24-.09"/>
      <path class="cls-5" d="M111.11,29.28c-.14.1-.26.24-.33.4"/>
      <path class="cls-5" d="M110.13,30.09s-.08.05-.11.07-.1.03-.12-.02c0-.02,0-.03,0-.05.02-.14.05-.28.11-.41"/>
      <path class="cls-5" d="M109.54,29.92c-.07.14-.15.3-.11.46.03.11.13.21.24.23s.24-.02.32-.11"/>
      <path class="cls-5" d="M110.03,30.37c-.04.11-.07.26.03.34.03.03.08.04.12.04.31.04.63-.06.86-.28"/>
      <path class="cls-5" d="M110.24,30.47c.26.05.54,0,.77-.14"/>
      <path class="cls-5" d="M110.51,30.15s-.05.04-.04.06"/>
      <path class="cls-5" d="M109.75,28.94c-.13.17-.21.37-.24.57"/>
      <path class="cls-5" d="M109.26,29.09c-.08.13-.12.28-.11.42.02,0,.04,0,.06,0"/>
      <path class="cls-5" d="M109.07,29.05c-.08.17-.12.36-.12.55,0,.05,0,.1.03.14.07.11.23.09.35.05"/>
      <path class="cls-5" d="M109.49,29.54c-.05.04-.08.12-.06.19.09.01.18-.01.25-.06"/>
      <path class="cls-5" d="M110.05,29.11s-.05.08-.05.12c.07,0,.14,0,.21,0"/>
      <path class="cls-5" d="M110.53,28.84c-.08.04-.14.11-.17.18.09,0,.17,0,.26-.02"/>
      <path class="cls-5" d="M111.32,28.51s-.08.1-.11.15c.06,0,.12,0,.17-.03"/>
      <path class="cls-5" d="M112.06,28.44c-.08.09-.26.09-.33.18-.05.06-.08.13-.09.21.09.01.15-.06.24-.08-.09,0-.19,0-.28,0-.02,0-.04,0-.06-.01-.03-.02-.01-.07,0-.1l.1-.19"/>
      <path class="cls-5" d="M109.89,28.77l-.04.08"/>
      <path class="cls-5" d="M109.6,28.97c-.06.01-.11.09-.08.15s.1.09.16.06"/>
      <path class="cls-5" d="M111.45,29.68l-.06.17"/>
    </g>
    <g id="tete-4" data-name="tete">
      <polyline class="cls-2" points="1.93 30.08 1.2 30.42 1.2 28.46 .22 27.48 7.46 24.63 10.53 26.48 10.53 29.27 7.97 28.4 1.93 30.08"/>
      <polyline class="cls-2" points="14.31 25.18 10.48 27.63 7.65 26.58 1.2 29.36"/>
      <path class="cls-3" d="M5.66,32.71s.68-.55,1.17,0-1.43.47-1.17,0Z"/>
      <path class="cls-3" d="M4.53,35.86c-.29.2,1.06-1.66,2.43-.11.48.54-2.76.46-2.43.11Z"/>
      <path class="cls-3" d="M3.66,33.34c-.67-.32,1.13-.99,1.08-.46"/>
      <path class="cls-5" d="M5.04,32.77s.06,1.08-.21,1.19,0,.65.11.56.43-.13.43-.13"/>
      <path class="cls-5" d="M8.92,28.72s.02,1.19.02,2.64c.01,2.25,0,5.13-.13,5.17-.35.11-1.66,4.44-3.56,1.6-1.9-2.84-2.3-1.51-2.22-3.6s.1-4.79.1-4.79"/>
      <path class="cls-5" d="M8.94,33.01c.84.26.79-1.9.79-1.9,0,0-.79-.16-.79.73,0,.53.36-.29.36-.29l-.36,1.05h.28s.34-.78.11-.72"/>
      <path class="cls-5" d="M4.39,30.26c-.25.75-.3,1.16-.16,1.24.1.06.3-.06.61-.35"/>
      <path class="cls-5" d="M5.12,29.84c-.16.18-.27.4-.32.64"/>
      <path class="cls-5" d="M5.5,30.19c-.1.22-.16.46-.16.7"/>
      <path class="cls-5" d="M6.33,30.32c-.06.16-.07.35-.04.52"/>
      <path class="cls-5" d="M7.19,29.84c-.13.2-.21.44-.22.68"/>
      <path class="cls-5" d="M7.68,29.85c-.16.16-.24.41-.19.64"/>
      <path class="cls-5" d="M6.93,29.07c-.19.15-.33.36-.4.59"/>
      <path class="cls-5" d="M5.63,30.1c-.06-.01-.08-.08-.06-.14s.06-.1.1-.13l.44-.4c-.14.05-.36.31-.42.45s-.06.29-.07.44c0,.04,0,.08.02.12s-.04-.3-.02-.33Z"/>
      <path class="cls-5" d="M6.26,29.77c-.38.36-.51.97-.3,1.45.01.03.03.07.06.09.06.04.14,0,.21-.05.22-.16.43-.33.62-.52"/>
      <path class="cls-5" d="M7.32,30.38c-.15.15-.32.31-.53.35-.05.01-.11.01-.16,0-.11-.04-.16-.18-.17-.3-.04-.38.13-.78.42-1.02-.2.31-.24.77-.19,1.14,0,.08.03.17.1.2.03.01.07.01.11,0,.25-.04.27-.15.41-.36Z"/>
      <path class="cls-5" d="M4.95,30.74c-.15.15-.32.31-.53.35-.05.01-.11.01-.16,0-.11-.04-.16-.18-.17-.3-.04-.38.13-.78.42-1.02-.2.31-.24.77-.19,1.14,0,.08.03.17.1.2.03.01.07.01.11,0,.25-.04.27-.15.41-.36Z"/>
      <path class="cls-5" d="M4.84,30.76c-.15.15-.32.31-.53.35-.05.01-.11.01-.16,0-.11-.04-.16-.18-.17-.3-.04-.38.13-.78.42-1.02-.2.31-.24.77-.19,1.14,0,.08.03.17.1.2.03.01.07.01.11,0,.25-.04.27-.15.41-.36Z"/>
      <path class="cls-5" d="M7.27,29.62c-.17.32-.25.68-.23,1.04,0,.05,0,.1.05.13.04.03.09.02.14,0,.14-.04.27-.13.36-.25"/>
      <path class="cls-5" d="M7.99,29.4c-.33.44-.5.99-.47,1.54.25,0,.48-.13.63-.32s.24-.43.31-.67"/>
      <path class="cls-5" d="M7.36,29.43c-.34.2-.56.58-.56.97.08,0,.17-.02.23-.07"/>
      <path class="cls-5" d="M5.03,29.79c-.52.21-1.72.33-1.84,1.02-.1.57.35.68.81.55.41-.11.72-.42,1.03-.7"/>
      <path class="cls-5" d="M4.01,30.42c-.22.15-.33.43-.28.7.21.04.43,0,.6-.12"/>
      <path class="cls-5" d="M4.69,30.23c-.25.13-.46.32-.62.55-.05.07-.08.17-.02.22.03.02.07.03.1.03.21,0,.42,0,.63-.03"/>
      <path class="cls-5" d="M5.6,30.85c-.13,0-.25.06-.37.07s-.29-.05-.28-.18c0-.06.03-.1.07-.15.18-.23.4-.44.65-.59-.21.2-.31.63-.36.92,0,.06-.01.13.03.17.05.05.12.05.19.03.25-.04.49-.13.71-.26"/>
      <path class="cls-5" d="M4.5,30.85c-.13,0-.25.06-.37.07s-.29-.05-.28-.18c0-.06.03-.1.07-.15.18-.23.4-.44.65-.59-.21.2-.31.63-.36.92,0,.06-.01.13.03.17.05.05.12.05.19.03.25-.04.49-.13.71-.26"/>
      <path class="cls-5" d="M7.01,29.63c-.3.28-.46.7-.42,1.11.39.07.75-.2,1.05-.45"/>
      <path class="cls-5" d="M7.75,29.04c-.3.28-.46.7-.42,1.11.39.07.75-.2,1.05-.45"/>
      <path class="cls-5" d="M7.67,29.68c-.14.2-.21.46-.18.7,0,.04.01.08.03.11.03.04.1.06.15.06.24.01.46-.11.67-.23"/>
      <path class="cls-5" d="M8.16,29.76c-.31.33-.53.74-.66,1.17"/>
      <path class="cls-5" d="M7.67,31.28c-.23.11-.52-.11-.37-.37"/>
      <path class="cls-5" d="M6.49,30.48c-.35.26-.58.68-.61,1.12.05,0,.11-.02.16-.03"/>
      <path class="cls-5" d="M5.95,30.55c-.13.17-.19.39-.17.6,0,.04.01.08.04.11.04.05.1.06.16.06.25.02.5-.02.73-.1"/>
      <path class="cls-5" d="M7.23,31.51c-.59.13-1.17.35-1.78.42s-1.19-.01-1.76-.09"/>
      <path class="cls-5" d="M4.8,31.38l.35.09"/>
      <path class="cls-5" d="M5.34,31.57c.32.1.66.13.99.09"/>
      <path class="cls-5" d="M7.23,31.18l.76.17"/>
      <path class="cls-5" d="M7.8,29.06c-.35-.03-.71-.03-1.06,0"/>
      <path class="cls-5" d="M4.72,29.58c-.28.14-.54.32-.77.53"/>
      <path class="cls-5" d="M5.35,29.63l-.15.09c.55-.3,1.11-.57,1.68-.8"/>
      <path class="cls-5" d="M4.93,29.49c.3-.16.61-.3.93-.41"/>
      <path class="cls-5" d="M7.84,28.73c.07.09.22.06.3.14.11.1.01.29.05.44"/>
      <path class="cls-5" d="M4.97,30.6c-.06-.01-.08-.08-.06-.14s.06-.1.1-.13l.44-.4c-.14.05-.36.31-.42.45s-.06.29-.07.44c0,.04,0,.08.02.12s-.04-.3-.02-.33Z"/>
      <path class="cls-5" d="M6.7,29.93c-.34.2-.56.58-.56.97.08,0,.17-.02.23-.07"/>
      <path class="cls-5" d="M4.03,30.73c-.25.13-.46.32-.62.55-.05.07-.08.17-.02.22.03.02.07.03.1.03.21,0,.42,0,.63-.03"/>
      <path class="cls-5" d="M4.94,31.34c-.13,0-.25.06-.37.07s-.29-.05-.28-.18c0-.06.03-.1.07-.15.18-.23.4-.44.65-.59-.21.2-.31.63-.36.92,0,.06-.01.13.03.17.05.05.12.05.19.03.25-.04.49-.13.71-.26"/>
      <path class="cls-5" d="M4.91,31.79c-.13,0-.25.06-.37.07s-.29-.05-.28-.18c0-.06.03-.1.07-.15.18-.23.4-.44.65-.59-.21.2-.31.63-.36.92,0,.06-.01.13.03.17.05.05.12.05.19.03.25-.04.49-.13.71-.26"/>
      <path class="cls-5" d="M6.13,30.55c-.06-.01-.08-.08-.06-.14s.06-.1.1-.13l.44-.4c-.14.05-.36.31-.42.45s-.06.29-.07.44c0,.04,0,.08.02.12s-.04-.3-.02-.33Z"/>
      <path class="cls-5" d="M7.86,29.88c-.34.2-.56.58-.56.97.08,0,.17-.02.23-.07"/>
      <path class="cls-5" d="M5.19,30.68c-.25.13-.46.32-.62.55-.05.07-.08.17-.02.22.03.02.07.03.1.03.21,0,.42,0,.63-.03"/>
      <path class="cls-5" d="M6.1,31.29c-.13,0-.25.06-.37.07s-.29-.05-.28-.18c0-.06.03-.1.07-.15.18-.23.4-.44.65-.59-.21.2-.31.63-.36.92,0,.06-.01.13.03.17.05.05.12.05.19.03.25-.04.49-.13.71-.26"/>
      <path class="cls-5" d="M6.95,30.2c-.06-.01-.08-.08-.06-.14s.06-.1.1-.13l.44-.4c-.14.05-.36.31-.42.45s-.06.29-.07.44c0,.04,0,.08.02.12s-.04-.3-.02-.33Z"/>
      <path class="cls-5" d="M6.01,30.33c-.25.13-.46.32-.62.55-.05.07-.08.17-.02.22.03.02.07.03.1.03.21,0,.42,0,.63-.03"/>
      <path class="cls-5" d="M6.92,30.95c-.13,0-.25.06-.37.07s-.29-.05-.28-.18c0-.06.03-.1.07-.15.18-.23.4-.44.65-.59-.21.2-.31.63-.36.92,0,.06-.01.13.03.17.05.05.12.05.19.03.25-.04.49-.13.71-.26"/>
      <path class="cls-5" d="M6.55,37.25c-.13.1-.23.24-.28.4"/>
      <path class="cls-5" d="M7.02,37.4c-.17.12-.32.26-.45.43-.02.03-.04.08,0,.09"/>
      <path class="cls-5" d="M8.08,36.7c-.3.14-.56.36-.76.63"/>
      <path class="cls-5" d="M7.19,37.47c-.2.2-.35.46-.43.73"/>
      <path class="cls-5" d="M7.1,38.05c-.07.01-.12.09-.1.16"/>
      <path class="cls-5" d="M8.06,37.27c-.17.12-.38.19-.47.38l-.09.19c.09,0,.17-.03.24-.09"/>
      <path class="cls-5" d="M7.21,37.34c-.14.1-.26.24-.33.4"/>
      <path class="cls-5" d="M6.23,38.14s-.08.05-.11.07-.1.03-.12-.02c0-.02,0-.03,0-.05.02-.14.05-.28.11-.41"/>
      <path class="cls-5" d="M5.63,37.97c-.07.14-.15.3-.11.46.03.11.13.21.24.23s.24-.02.32-.11"/>
      <path class="cls-5" d="M6.13,38.42c-.04.11-.07.26.03.34.03.03.08.04.12.04.31.04.63-.06.86-.28"/>
      <path class="cls-5" d="M6.34,38.52c.26.05.54,0,.77-.14"/>
      <path class="cls-5" d="M6.61,38.21s-.05.04-.04.06"/>
      <path class="cls-5" d="M5.85,36.99c-.13.17-.21.37-.24.57"/>
      <path class="cls-5" d="M5.36,37.14c-.08.13-.12.28-.11.42.02,0,.04,0,.06,0"/>
      <path class="cls-5" d="M5.17,37.1c-.08.17-.12.36-.12.55,0,.05,0,.1.03.14.07.11.23.09.35.05"/>
      <path class="cls-5" d="M5.59,37.59c-.05.04-.08.12-.06.19.09.01.18-.01.25-.06"/>
      <path class="cls-5" d="M6.15,37.17s-.05.08-.05.12c.07,0,.14,0,.21,0"/>
      <path class="cls-5" d="M6.63,36.89c-.08.04-.14.11-.17.18.09,0,.17,0,.26-.02"/>
      <path class="cls-5" d="M7.42,36.57s-.08.1-.11.15c.06,0,.12,0,.17-.03"/>
      <path class="cls-5" d="M8.16,36.5c-.08.09-.26.09-.33.18-.05.06-.08.13-.09.21.09.01.15-.06.24-.08-.09,0-.19,0-.28,0-.02,0-.04,0-.06-.01-.03-.02-.01-.07,0-.1l.1-.19"/>
      <path class="cls-5" d="M5.99,36.82l-.04.08"/>
      <path class="cls-5" d="M5.7,37.03c-.06.01-.11.09-.08.15s.1.09.16.06"/>
      <path class="cls-5" d="M7.55,37.74l-.06.17"/>
    </g>
    <line class="cls-1" x1="85.66" y1="24.99" x2="77.43" y2="23.25"/>
    <line class="cls-1" x1="64.86" y1="23.52" x2="74.79" y2="23.32"/>
    <polyline class="cls-4" points="24.8 14.15 25.24 9.46 8.94 18.87 9.15 22.95"/>
    <polyline class="cls-1" points="32.28 14.48 32.6 6.27 30.67 3.9 25.89 4.93 25.82 9.83"/>
    <line class="cls-1" x1="30.33" y1="13.31" x2="30.67" y2="3.9"/>
    <path class="cls-2" d="M29.07,5.12l.2,7.6-1.1-.77s-1.59.72-1.56.77-.23-6.96-.23-6.96l1.29,1.09,1.4-1.72Z"/>
    <polyline class="cls-2" points="7.11 24.63 7.11 16.16 9.34 17.4 9.34 25.4"/>
    <polyline class="cls-2" points="7.11 16.16 3.68 18.2 3.68 26.03"/>
    <path class="cls-2" d="M5.52,18.2v6.43l-.62-.51-.58.87-.07-6.47s.29.32.46.39.81-.7.81-.7Z"/>
    <polygon class="cls-2" points="73.94 1.35 74.06 8.92 75.6 7.67 77.21 8.92 77.09 1.1 75.8 2.12 73.94 1.35"/>
    <polygon class="cls-2" points="72.88 .33 73.25 11.14 71.27 12.08 70.95 2.63 72.88 .33"/>
    <polyline class="cls-2" points="78.89 10.96 78.48 .33 72.88 .33"/>
    <path class="cls-2" d="M106.77,18.39s-.27-6.38-.59-8.07l2.21-2.47,4.45,1.06.65,9.87"/>
    <line class="cls-2" x1="109.5" y1="16.86" x2="108.39" y2="7.86"/>
    <polygon class="cls-2" points="109.68 9.34 110.39 16.37 111.17 15.52 112.36 16.79 112.28 10.18 111.09 10.67 109.68 9.34"/>
  </g>
</svg>