<?xml version="1.0" encoding="UTF-8"?>
<svg id="Calque_2" data-name="Calque 2" xmlns="http://www.w3.org/2000/svg" xmlns:xlink="http://www.w3.org/1999/xlink" viewBox="0 0 1109.37 700.44">
  <defs>
    <style>
      .cls-1, .cls-2, .cls-3, .cls-4, .cls-5, .cls-6, .cls-7, .cls-8, .cls-9 {
        stroke: #1d1d1b;
        stroke-miterlimit: 10;
      }

      .cls-1, .cls-2, .cls-4, .cls-6 {
        fill: none;
      }

      .cls-1, .cls-8 {
        stroke-width: .5px;
      }

      .cls-2, .cls-5 {
        stroke-width: .25px;
      }

      .cls-3 {
        fill: #575756;
      }

      .cls-5, .cls-7, .cls-8 {
        fill: #fff;
      }

      .cls-6 {
        stroke-width: 2px;
      }

      .cls-9, .cls-10 {
        fill: #1d1d1b;
      }

      .cls-10 {
        stroke-width: 0px;
      }
    </style>
  </defs>
  <g id="Sale_des_fête_de_berlfort" data-name="Sale des fête de berlfort">
    <g>
      <rect class="cls-4" x="480.76" y="597.04" width="143.83" height="54.5"/>
      <rect class="cls-4" x="494.32" y="597.04" width="107.93" height="39.82"/>
      <rect class="cls-4" x="398.32" y="597.04" width="226.27" height="76.53"/>
    </g>
    <g>
      <rect class="cls-4" x="882.6" y="597.04" width="143.83" height="54.5" transform="translate(1909.03 1248.58) rotate(180)"/>
      <rect class="cls-4" x="904.94" y="597.04" width="107.93" height="39.82" transform="translate(1917.81 1233.9) rotate(180)"/>
      <rect class="cls-4" x="882.6" y="597.04" width="226.27" height="76.53" transform="translate(1991.47 1270.6) rotate(180)"/>
    </g>
    <image width="1200" height="802" transform="scale(.33)" xlink:href="../salle des fêtes de belfort.jpeg"/>
    <rect class="cls-7" x="452.54" y="666.22" width="602.12" height="7.34"/>
    <rect class="cls-7" x="499.58" y="629.52" width="508.04" height="7.34"/>
    <rect class="cls-7" x="490.17" y="636.86" width="526.85" height="7.34"/>
    <rect class="cls-7" x="480.76" y="644.2" width="545.67" height="7.34"/>
    <rect class="cls-7" x="471.35" y="651.54" width="564.49" height="7.34"/>
    <rect class="cls-7" x="422.12" y="688.24" width="658.57" height="7.34"/>
    <rect class="cls-7" x="431.53" y="680.9" width="639.75" height="7.34"/>
    <rect class="cls-7" x="440.93" y="673.56" width="620.93" height="7.34"/>
    <rect class="cls-7" x="461.95" y="658.88" width="583.3" height="7.34"/>
    <g id="rembardes">
      <line class="cls-4" x1="704.06" y1="607.5" x2="697.7" y2="700.4"/>
      <line class="cls-4" x1="803.13" y1="607.5" x2="809.47" y2="700.4"/>
    </g>
    <polygon class="cls-8" points="665.55 436.08 680.47 436.21 683.03 427.91 662.98 427.91 665.55 436.21 665.5 468 680.64 468 680.47 436.21 665.55 436.08"/>
    <polygon class="cls-5" points="669.21 465.65 667.39 466.26 667.39 438.16 669.21 437.54 669.21 465.65"/>
    <polygon class="cls-5" points="677.25 465.65 679.07 466.26 679.07 438.16 677.25 437.54 677.25 465.65"/>
    <rect class="cls-5" x="672.08" y="437.54" width="1.85" height="27.92"/>
    <polygon class="cls-8" points="746.14 436.08 761.06 436.21 763.62 427.91 743.57 427.91 746.14 436.21 746.09 468 761.23 468 761.06 436.21 746.14 436.08"/>
    <polygon class="cls-5" points="749.8 465.65 747.98 466.26 747.98 438.16 749.8 437.54 749.8 465.65"/>
    <polygon class="cls-5" points="757.84 465.65 759.66 466.26 759.66 438.16 757.84 437.54 757.84 465.65"/>
    <rect class="cls-5" x="752.67" y="437.54" width="1.85" height="27.92"/>
    <polygon class="cls-8" points="829.14 436.08 844.06 436.21 846.63 427.91 826.58 427.91 829.14 436.21 829.1 468 844.24 468 844.06 436.21 829.14 436.08"/>
    <polygon class="cls-5" points="832.81 465.65 830.98 466.26 830.98 438.16 832.81 437.54 832.81 465.65"/>
    <polygon class="cls-5" points="840.84 465.65 842.67 466.26 842.67 438.16 840.84 437.54 840.84 465.65"/>
    <rect class="cls-5" x="835.68" y="437.54" width="1.85" height="27.92"/>
    <path class="cls-1" d="M899.9,399.29c34.95,10.5-10.21,17.63-10.88,17.24-11.41-2.74-6.41,11.38-6.41,11.38l-129.2-.29-128.8.29s4.6-14.13-6.82-11.38c-.67.39-49.15-10.58-10.88-17.24,0,0,137.89-46.62,293,0Z"/>
    <rect class="cls-2" x="153.49" y="560.95" width=".41" height=".45"/>
    <rect class="cls-2" x="162.92" y="560.95" width=".41" height=".45"/>
    <path class="cls-4" d="M758.76,188.28h-8.77c-30.79-25.05-2.35-49.39-2.35-49.39h11.12-9.5,11.12s28.44,24.34-2.35,49.39h-8.77"/>
    <polyline class="cls-4" points="756.55 183.63 752.13 183.63 752.13 182.06 750.57 182.06 750.57 172.13 749.71 172.13 749.57 163.59 743.15 163.59 743.15 152.13 747.57 152.13 747.57 156.69 750.57 156.69 750.71 146.3 752.42 146.3 752.56 141.89 756.55 141.89"/>
    <polyline class="cls-4" points="752.25 183.63 756.67 183.63 756.67 182.06 758.24 182.06 758.24 172.13 759.1 172.13 759.24 163.59 765.65 163.59 765.65 152.13 761.23 152.13 761.23 156.69 758.24 156.69 758.1 146.3 756.39 146.3 756.25 141.89 752.25 141.89"/>
    <polyline class="cls-4" points="754.34 161.81 754.34 166.38 750.18 166.38 758.52 166.38"/>
    <polyline class="cls-4" points="744.7 141.89 725.33 141.89 725.33 138.3 727.9 138.3 727.9 134.52 734.53 134.52 734.64 132.16 739.66 132.16 739.66 128.26 740.94 128.26 740.94 127.08 748.53 127.08 748.53 125.42 754.35 125.42 754.35 123.18 758.52 123.18 758.52 125.66 760.76 125.54 760.76 128.26 767.67 128.26 767.67 129.44 767.67 134.17 775.9 134.17 775.9 135.82 783.71 135.94 783.71 141.89 763.74 142.37"/>
    <polyline class="cls-4" points="736.24 138.89 738.16 138.89 738.16 137.83 741.58 137.83 741.58 134.99 743.15 134.99 743.15 132.77 754.52 132.77 754.52 130.98 757.41 130.98"/>
    <polyline class="cls-4" points="763.93 133.81 765.21 133.81 765.21 136.41"/>
    <line class="cls-4" x1="750.78" y1="128.38" x2="752.25" y2="128.38"/>
    <polyline class="cls-4" points="754.01 127.08 756.55 127.08 756.55 125.9 757.41 125.9"/>
    <g id="lampe">
      <polygon class="cls-4" points="754.84 55.53 743.1 76.35 764.89 76.35 754.84 55.53"/>
      <ellipse class="cls-9" cx="754.62" cy="51.02" rx="5.72" ry="4.81"/>
      <polygon class="cls-4" points="742.41 76.35 736.73 76.35 736.73 82.52 771.76 82.52 771.76 76.35 764.2 76.35 742.41 76.35"/>
      <polyline class="cls-3" points="754.94 66.8 754.1 66.8 754.1 68.08 752.45 68.08 752.45 70.58 754.35 70.58 754.3 70.58 756.79 70.58 756.79 68.08 755.14 68.08 755.14 66.8 754.3 66.8"/>
      <polyline class="cls-4" points="742.31 82.52 742.31 85.34 744.19 87.67 744.19 93.63 742.31 93.63 742.31 94.92 733.37 94.92 733.37 97.57 775.87 97.57"/>
      <polyline class="cls-4" points="766.94 82.52 766.94 85.34 765.05 87.67 765.05 93.63 766.94 93.63 766.94 94.92 775.87 94.92 775.87 97.57 733.37 97.57"/>
    </g>
    <g>
      <polyline class="cls-4" points="562.11 187.45 572.37 208.95 551.11 208.95"/>
      <ellipse class="cls-4" cx="559.71" cy="184.99" rx="4.27" ry="3.42"/>
      <polyline class="cls-4" points="557.46 187.45 547.21 208.95 568.46 208.95"/>
      <polyline class="cls-4" points="566.55 207 550.25 207 558.12 190.51 561.68 190.51 569.54 207 553.25 207"/>
      <path class="cls-4" d="M570.44,227.51h-23.69l-4.27-5.74v-4.03c2.81,5.25,17.46-9.28,17.46-9.28h-.08s14.66,14.53,17.46,9.28v4.03l-4.27,5.74h-23.69,21.09Z"/>
      <ellipse class="cls-4" cx="559.9" cy="205.22" rx="1.89" ry="3.24"/>
      <rect class="cls-4" x="558.39" y="214.96" width="3.02" height="9.98"/>
      <line class="cls-4" x1="544.2" y1="224.09" x2="575.59" y2="224.09"/>
    </g>
    <line class="cls-1" x1="547.21" y1="208.95" x2="547.21" y2="227.78"/>
    <g>
      <polyline class="cls-4" points="957.12 190.46 967.38 211.95 946.13 211.95"/>
      <ellipse class="cls-4" cx="954.72" cy="187.99" rx="4.27" ry="3.42"/>
      <polyline class="cls-4" points="952.48 190.46 942.22 211.95 963.47 211.95"/>
      <polyline class="cls-4" points="961.56 210 945.27 210 953.13 193.52 956.69 193.52 964.55 210 948.26 210"/>
      <path class="cls-4" d="M965.46,230.52h-23.69l-4.27-5.74v-4.03c2.81,5.25,17.46-9.28,17.46-9.28h-.08s14.66,14.53,17.46,9.28v4.03l-4.27,5.74h-23.69,21.09Z"/>
      <ellipse class="cls-4" cx="954.91" cy="208.23" rx="1.89" ry="3.24"/>
      <rect class="cls-4" x="953.4" y="217.97" width="3.02" height="9.98"/>
      <line class="cls-4" x1="939.21" y1="227.1" x2="970.61" y2="227.1"/>
    </g>
    <line class="cls-1" x1="935.97" y1="209.5" x2="935.97" y2="228.33"/>
    <line class="cls-1" x1="560.92" y1="212.15" x2="560.92" y2="230.21"/>
    <path class="cls-4" d="M1108.87,597.04v-323.08l-94.05-.34s-64.76-35-66.63-61.04c.38,12.77-18.53-87.87-82.97-114.88l-215.39-.28,215.39.28-215.39-.28c-64.44,27.01-83.35,127.65-82.97,114.88-1.87,26.04-68.26,59.12-68.26,59.12l-95.43-.87-4.43,298.77-.41,27.73"/>
    <polyline class="cls-4" points="403.16 270.54 403.16 243.57 480.76 243.57 480.76 219.96 542.48 219.96"/>
    <polyline class="cls-4" points="1108.87 273.55 1108.87 246.58 1031.27 246.58 1031.27 222.96 972.33 222.96"/>
    <line class="cls-1" x1="398.8" y1="567.06" x2="624.6" y2="567.06"/>
    <line class="cls-1" x1="398.8" y1="540.51" x2="624.6" y2="540.51"/>
    <line class="cls-1" x1="399.82" y1="515.53" x2="625.62" y2="515.53"/>
    <line class="cls-1" x1="399.56" y1="491.36" x2="624.6" y2="491.36"/>
    <line class="cls-1" x1="399.82" y1="468" x2="625.62" y2="468"/>
    <line class="cls-1" x1="400.58" y1="444.98" x2="624.6" y2="444.98"/>
    <line class="cls-1" x1="400.96" y1="418.8" x2="624.36" y2="418.8"/>
    <line class="cls-1" x1="401.46" y1="393.04" x2="624.36" y2="393.04"/>
    <line class="cls-1" x1="401.46" y1="366.24" x2="624.6" y2="366.24"/>
    <line class="cls-1" x1="402.14" y1="339.83" x2="624.6" y2="339.83"/>
    <line class="cls-1" x1="402.53" y1="313.41" x2="626.71" y2="313.41"/>
    <line class="cls-1" x1="882.6" y1="571.81" x2="1108.87" y2="571.81"/>
    <line class="cls-1" x1="882.6" y1="545.25" x2="1108.87" y2="545.25"/>
    <line class="cls-1" x1="882.55" y1="520.28" x2="1108.87" y2="520.28"/>
    <line class="cls-1" x1="882.29" y1="496.1" x2="1108.87" y2="496.1"/>
    <line class="cls-1" x1="882.55" y1="472.74" x2="1108.87" y2="472.74"/>
    <line class="cls-1" x1="882.6" y1="449.73" x2="1108.87" y2="449.73"/>
    <line class="cls-1" x1="882.6" y1="423.55" x2="1108.87" y2="423.55"/>
    <line class="cls-1" x1="882.6" y1="397.79" x2="1108.87" y2="397.79"/>
    <line class="cls-1" x1="882.6" y1="370.99" x2="1108.87" y2="370.99"/>
    <line class="cls-1" x1="882.6" y1="344.57" x2="1108.87" y2="344.57"/>
    <line class="cls-1" x1="881.68" y1="318.16" x2="1108.87" y2="318.16"/>
    <g id="colonne">
      <polygon class="cls-4" points="589.42 342.29 587.89 344.66 585.64 345.5 591.56 347.06 591.63 340.74 590.64 340.15 589.42 340.15 589.42 342.29"/>
      <polygon class="cls-4" points="571.89 344.66 570.37 342.29 570.37 340.15 569.15 340.15 568.14 340.75 568.06 347.11 574.15 345.5 571.89 344.66"/>
      <polygon class="cls-4" points="569.15 340.15 570.48 339.35 572.69 339.35 572.69 332.73 574.15 332.73 574.15 333.8 575.24 333.8 575.24 335.34 576.4 337.08 579.59 337.08 579.59 335.74 579.73 335.74 579.73 337.08 580.05 337.08 580.05 335.74 580.2 335.74 580.2 337.08 583.39 337.08 584.55 335.34 584.55 333.8 585.64 333.8 585.64 332.73 587.09 332.73 587.09 339.35 589.31 339.35 590.64 340.15 591.63 340.15 591.76 328.39 582.46 328.39 577.69 328.39 568.32 328.39 568.15 340.15 569.15 340.15"/>
      <path class="cls-4" d="M599.88,330.33v1.2l-1.82,10.49c.07.2,0,2.61,0,2.61l-2.83,2.67h-2.76l-.91-.24-.05,4.22,7.67-.24,3.45-3.16-.69-9.94-2.47-.4,2.98-4.14-.04-5.01h-4.57l4.42,1.94h-2.39Z"/>
      <polygon class="cls-4" points="557.73 328.39 557.72 330.24 562.08 328.39 557.73 328.39"/>
      <path class="cls-4" d="M557.51,347.88l3.45,3.16,7.04.22.06-4.16-.74.19h-2.76l-2.83-2.67s-.07-2.41,0-2.61l-1.82-10.49v-1.2h-2.2l-.02,3.08,2.98,4.14-2.47.4-.69,9.94Z"/>
      <polygon class="cls-4" points="557.2 586.18 552.5 591.61 552.5 597.04 599.93 597.04 599.93 591.61 596.31 585.82 557.2 586.18"/>
      <polygon class="cls-4" points="559.67 585.82 594.5 585.82 589.88 580.63 589.07 580.63 563.73 580.63 559.67 585.82"/>
      <polygon class="cls-6" points="587.27 365.75 583.57 366.22 582.99 357.33 581.6 355.34 581.22 351 583.52 351.44 583.21 346.87 581.23 346.87 580.67 348.84 579.48 348.84 578.92 346.87 576.94 346.87 576.63 351.44 578.93 351 578.54 355.34 577.16 357.33 576.58 366.22 572.87 365.75 571.71 351.38 568 351.27 564.82 580.63 589.07 580.63 591.52 351.29 588.44 351.38 587.27 365.75"/>
      <polygon class="cls-4" points="568.35 325.72 562.08 328.39 568.32 328.39 568.35 325.72"/>
      <polygon class="cls-4" points="557.51 330.33 557.72 330.33 557.72 330.24 557.51 330.33"/>
      <polygon class="cls-4" points="591.79 325.73 591.76 328.39 597.85 328.39 591.79 325.73"/>
    </g>
    <g id="colonne-2" data-name="colonne">
      <polygon class="cls-4" points="535.08 342.29 533.55 344.66 531.3 345.5 537.22 347.06 537.29 340.74 536.3 340.15 535.08 340.15 535.08 342.29"/>
      <polygon class="cls-4" points="517.55 344.66 516.03 342.29 516.03 340.15 514.8 340.15 513.8 340.75 513.71 347.11 519.8 345.5 517.55 344.66"/>
      <polygon class="cls-4" points="514.8 340.15 516.14 339.35 518.35 339.35 518.35 332.73 519.8 332.73 519.8 333.8 520.89 333.8 520.89 335.34 522.06 337.07 525.25 337.07 525.25 335.74 525.39 335.74 525.39 337.07 525.71 337.07 525.71 335.74 525.85 335.74 525.85 337.07 529.05 337.07 530.21 335.34 530.21 333.8 531.3 333.8 531.3 332.73 532.75 332.73 532.75 339.35 534.97 339.35 536.3 340.15 537.29 340.15 537.42 328.38 528.12 328.38 523.35 328.38 513.97 328.38 513.81 340.15 514.8 340.15"/>
      <path class="cls-4" d="M545.53,330.32v1.2l-1.82,10.49c.07.2,0,2.61,0,2.61l-2.83,2.67h-2.76l-.91-.24-.05,4.22,7.67-.24,3.45-3.16-.69-9.94-2.47-.4,2.98-4.14-.04-5.01h-4.57l4.42,1.94h-2.39Z"/>
      <polygon class="cls-4" points="503.39 328.38 503.37 330.24 507.74 328.38 503.39 328.38"/>
      <path class="cls-4" d="M503.17,347.88l3.45,3.16,7.04.22.06-4.16-.74.19h-2.76l-2.83-2.67s-.07-2.41,0-2.61l-1.82-10.49v-1.2h-2.2l-.02,3.08,2.98,4.14-2.47.4-.69,9.94Z"/>
      <polygon class="cls-4" points="502.86 586.17 498.15 591.61 498.15 597.04 545.59 597.04 545.59 591.61 541.96 585.81 502.86 586.17"/>
      <polygon class="cls-4" points="505.33 585.81 540.15 585.81 535.54 580.63 534.73 580.63 509.39 580.63 505.33 585.81"/>
      <polygon class="cls-6" points="532.93 365.75 529.23 366.22 528.65 357.33 527.26 355.33 526.87 350.99 529.17 351.43 528.86 346.87 526.88 346.87 526.33 348.84 525.14 348.84 524.58 346.87 522.6 346.87 522.29 351.43 524.59 350.99 524.2 355.33 522.82 357.33 522.23 366.22 518.53 365.75 517.37 351.38 513.66 351.26 510.48 580.62 534.73 580.63 537.17 351.28 534.09 351.38 532.93 365.75"/>
      <polygon class="cls-4" points="514.01 325.72 507.74 328.38 513.97 328.38 514.01 325.72"/>
      <polygon class="cls-4" points="503.17 330.32 503.37 330.32 513.97 328.38 503.17 330.32"/>
      <polygon class="cls-4" points="537.45 325.72 537.42 328.38 543.51 328.38 537.45 325.72"/>
    </g>
    <g id="colonne-3" data-name="colonne">
      <polygon class="cls-4" points="997.93 342.29 996.4 344.66 994.15 345.5 1000.07 347.06 1000.14 340.74 999.15 340.15 997.93 340.15 997.93 342.29"/>
      <polygon class="cls-4" points="980.41 344.66 978.88 342.29 978.88 340.15 977.66 340.15 976.66 340.75 976.57 347.11 982.66 345.5 980.41 344.66"/>
      <polygon class="cls-4" points="977.66 340.15 978.99 339.35 981.2 339.35 981.2 332.73 982.66 332.73 982.66 333.8 983.75 333.8 983.75 335.34 984.91 337.07 988.1 337.07 988.1 335.74 988.24 335.74 988.24 337.07 988.57 337.07 988.57 335.74 988.71 335.74 988.71 337.07 991.9 337.07 993.06 335.34 993.06 333.8 994.15 333.8 994.15 332.73 995.61 332.73 995.61 339.35 997.82 339.35 999.15 340.15 1000.14 340.15 1000.27 328.38 990.97 328.38 986.2 328.38 976.83 328.38 976.66 340.15 977.66 340.15"/>
      <path class="cls-4" d="M1008.39,330.32v1.2l-1.82,10.49c.07.2,0,2.61,0,2.61l-2.83,2.67h-2.76l-.91-.24-.05,4.22,7.67-.24,3.45-3.16-.69-9.94-2.47-.4,2.98-4.14-.04-5.01h-4.57l4.42,1.94h-2.39Z"/>
      <polygon class="cls-4" points="966.24 328.38 966.23 330.24 970.59 328.38 966.24 328.38"/>
      <path class="cls-4" d="M966.03,347.88l3.45,3.16,7.04.22.06-4.16-.74.19h-2.76l-2.83-2.67s-.07-2.41,0-2.61l-1.82-10.49v-1.2h-2.2l-.02,3.08,2.98,4.14-2.47.4-.69,9.94Z"/>
      <polygon class="cls-4" points="965.71 586.17 961.01 591.61 961.01 597.04 1008.44 597.04 1008.44 591.61 1004.82 585.81 965.71 586.17"/>
      <polygon class="cls-4" points="968.18 585.81 1003.01 585.81 998.39 580.63 997.58 580.63 972.24 580.63 968.18 585.81"/>
      <polygon class="cls-6" points="995.78 365.75 992.08 366.22 991.5 357.33 990.11 355.33 989.73 350.99 992.03 351.43 991.72 346.87 989.74 346.87 989.18 348.84 987.99 348.84 987.43 346.87 985.45 346.87 985.14 351.43 987.44 350.99 987.06 355.33 985.67 357.33 985.09 366.22 981.38 365.75 980.22 351.38 976.51 351.26 973.33 580.62 997.58 580.63 1000.03 351.28 996.95 351.38 995.78 365.75"/>
      <polygon class="cls-4" points="976.86 325.72 970.59 328.38 976.83 328.38 976.86 325.72"/>
      <polygon class="cls-4" points="966.03 330.32 966.23 330.32 966.23 330.24 966.03 330.32"/>
      <polygon class="cls-4" points="1000.3 325.72 1000.27 328.38 1006.36 328.38 1000.3 325.72"/>
    </g>
    <g id="colonne-4" data-name="colonne">
      <polygon class="cls-4" points="943.59 342.28 942.06 344.66 939.81 345.49 945.73 347.06 945.8 340.74 944.81 340.14 943.59 340.14 943.59 342.28"/>
      <polygon class="cls-4" points="926.06 344.66 924.54 342.28 924.54 340.14 923.31 340.14 922.31 340.75 922.23 347.1 928.31 345.49 926.06 344.66"/>
      <polygon class="cls-4" points="923.31 340.14 924.65 339.34 926.86 339.34 926.86 332.72 928.31 332.72 928.31 333.79 929.4 333.79 929.4 335.33 930.57 337.07 933.76 337.07 933.76 335.73 933.9 335.73 933.9 337.07 934.22 337.07 934.22 335.73 934.36 335.73 934.36 337.07 937.56 337.07 938.72 335.33 938.72 333.79 939.81 333.79 939.81 332.72 941.26 332.72 941.26 339.34 943.48 339.34 944.81 340.14 945.8 340.14 945.93 328.38 936.63 328.38 931.86 328.38 922.48 328.38 922.32 340.14 923.31 340.14"/>
      <path class="cls-4" d="M954.05,330.32v1.2l-1.82,10.49c.07.2,0,2.61,0,2.61l-2.83,2.67h-2.76l-.91-.24-.05,4.22,7.67-.24,3.45-3.16-.69-9.94-2.47-.4,2.98-4.14-.04-5.01h-4.57l4.42,1.94h-2.39Z"/>
      <polygon class="cls-4" points="911.9 328.38 911.89 330.23 916.25 328.38 911.9 328.38"/>
      <path class="cls-4" d="M911.68,347.88l3.45,3.16,7.04.22.06-4.16-.74.19h-2.76l-2.83-2.67s-.07-2.41,0-2.61l-1.82-10.49v-1.2h-2.2l-.02,3.08,2.98,4.14-2.47.4-.69,9.94Z"/>
      <polygon class="cls-4" points="911.37 586.17 906.66 591.6 906.66 597.03 954.1 597.03 954.1 591.6 950.48 585.81 911.37 586.17"/>
      <polygon class="cls-4" points="913.84 585.81 948.66 585.81 944.05 580.62 943.24 580.62 917.9 580.62 913.84 585.81"/>
      <polygon class="cls-6" points="941.44 365.75 937.74 366.21 937.16 357.32 935.77 355.33 935.38 350.99 937.68 351.43 937.38 346.86 935.39 346.86 934.84 348.83 933.65 348.83 933.09 346.86 931.11 346.86 930.8 351.43 933.1 350.99 932.71 355.33 931.33 357.32 930.75 366.21 927.04 365.75 925.88 351.37 922.17 351.26 918.99 580.62 943.24 580.62 945.68 351.28 942.6 351.37 941.44 365.75"/>
      <polygon class="cls-4" points="922.52 325.72 916.25 328.38 922.48 328.38 922.52 325.72"/>
      <polygon class="cls-4" points="911.68 330.32 911.88 330.32 911.89 330.23 911.68 330.32"/>
      <polygon class="cls-4" points="945.96 325.72 945.93 328.38 952.02 328.38 945.96 325.72"/>
    </g>
    <g id="Portes">
      <rect class="cls-7" x="624.6" y="602.55" width="258" height="26.97"/>
      <rect class="cls-4" x="624.6" y="607.14" width="15.4" height="17.78"/>
      <rect class="cls-4" x="867.19" y="607.14" width="15.4" height="17.78"/>
      <rect class="cls-4" x="624.6" y="602.55" width="17.97" height="26.97"/>
      <rect class="cls-4" x="864.63" y="602.55" width="17.97" height="26.97"/>
      <g>
        <polygon class="cls-4" points="642.56 629.52 642.56 629.52 716.59 629.52 716.59 629.52 679.57 629.52 642.56 629.52"/>
        <polygon class="cls-4" points="642.56 481.53 624.6 481.53 624.6 629.52 642.56 629.52 642.56 509.1 642.56 481.53"/>
        <polygon class="cls-4" points="864.63 509.1 864.63 629.52 882.6 629.52 882.6 481.53 864.63 481.53 864.63 509.1"/>
        <path class="cls-4" d="M753.6,221.87c-49.95,0-93.28,24.61-114.71,60.61-9.13,15.34-14.29,32.75-14.29,51.21v134.3h258v-134.3c0-61.76-57.76-111.82-129-111.82Z"/>
        <polygon class="cls-4" points="624.6 481.53 642.56 481.53 642.56 468 716.59 468 790.61 468 864.63 468 864.63 481.53 882.6 481.53 882.6 468 624.6 468 624.6 481.53"/>
        <rect class="cls-4" x="716.59" y="509.1" width="37.01" height="120.42"/>
        <rect class="cls-4" x="753.6" y="509.1" width="37.01" height="120.42"/>
        <rect class="cls-4" x="716.59" y="468" width="74.02" height="13.53"/>
        <rect class="cls-4" x="790.61" y="509.1" width="37.01" height="120.42"/>
        <rect class="cls-4" x="827.62" y="509.1" width="37.01" height="120.42"/>
        <rect class="cls-4" x="790.61" y="468" width="74.02" height="13.53"/>
        <rect class="cls-4" x="642.56" y="509.1" width="37.01" height="120.42"/>
        <rect class="cls-4" x="679.57" y="509.1" width="37.01" height="120.42"/>
        <rect class="cls-4" x="642.56" y="468" width="74.02" height="13.53"/>
        <polygon class="cls-4" points="716.59 481.53 716.59 509.1 753.6 509.1 790.61 509.1 790.61 481.53 716.59 481.53"/>
        <polygon class="cls-4" points="790.61 509.1 827.62 509.1 864.63 509.1 864.63 481.53 790.61 481.53 790.61 509.1"/>
        <polygon class="cls-4" points="679.57 509.1 716.59 509.1 716.59 481.53 642.56 481.53 642.56 509.1 679.57 509.1"/>
        <rect class="cls-4" x="647.49" y="607.14" width="27.32" height="17.78"/>
        <rect class="cls-4" x="684.42" y="607.14" width="27.32" height="17.78"/>
        <rect class="cls-4" x="721.43" y="607.14" width="27.32" height="17.78"/>
        <rect class="cls-4" x="758.44" y="607.14" width="27.32" height="17.78"/>
        <rect class="cls-4" x="795.45" y="607.14" width="27.32" height="17.78"/>
        <rect class="cls-4" x="832.46" y="607.14" width="27.32" height="17.78"/>
      </g>
      <line class="cls-2" x1="241.62" y1="225.58" x2="241.62" y2="223.52"/>
      <line class="cls-2" x1="241.62" y1="225.58" x2="241.62" y2="223.52"/>
      <path class="cls-1" d="M676.08,529.13v-17.1h-13.1v8.55h4.02v-5.55h3.49v9.34h-18.69v-9.34h3.49v5.55h4.02v-8.55h-13.1v17.1l4.54,4v44.83l-4.54,4v17.1h13.1v-8.55h-4.02v5.55h-3.49v-9.34h18.69v9.34h-3.49v-5.55h-4.02v8.55h13.1v-17.1l-4.54-4v-44.83l4.54-4ZM657.76,586.66l3.38-5.43,3.38,5.43h-6.77ZM657.76,524.55l3.38,5.43,3.38-5.43h-6.77Z"/>
      <polygon class="cls-1" points="661.15 581.24 664.53 576.76 664.53 529.98 657.76 529.98 657.76 576.51 661.15 581.24"/>
      <path class="cls-1" d="M713.02,529.11v-17.1h-13.1v8.55h4.02v-5.55h3.49v9.34h-18.69v-9.34h3.49v5.55h4.02v-8.55h-13.1v17.1l4.54,4v44.83l-4.54,4v17.1h13.1v-8.55h-4.02v5.55h-3.49v-9.34h18.69v9.34h-3.49v-5.55h-4.02v8.55h13.1v-17.1l-4.54-4v-44.83l4.54-4ZM694.7,586.64l3.38-5.43,3.38,5.43h-6.77ZM694.7,524.53l3.38,5.43,3.38-5.43h-6.77Z"/>
      <polygon class="cls-1" points="698.08 581.21 701.46 576.74 701.46 529.95 694.7 529.95 694.7 576.49 698.08 581.21"/>
      <path class="cls-1" d="M750.03,529.19v-17.1h-13.1v8.55h4.02v-5.55h3.49v9.34h-18.69v-9.34h3.49v5.55h4.02v-8.55h-13.1v17.1l4.54,4v44.83l-4.54,4v17.1h13.1v-8.55h-4.02v5.55h-3.49v-9.34h18.69v9.34h-3.49v-5.55h-4.02v8.55h13.1v-17.1l-4.54-4v-44.83l4.54-4ZM731.71,586.72l3.38-5.43,3.38,5.43h-6.77ZM731.71,524.61l3.38,5.43,3.38-5.43h-6.77Z"/>
      <polygon class="cls-1" points="735.09 581.3 738.47 576.82 738.47 530.04 731.71 530.04 731.71 576.57 735.09 581.3"/>
      <path class="cls-1" d="M787.04,529.11v-17.1h-13.1v8.55h4.02v-5.55h3.49v9.34h-18.69v-9.34h3.49v5.55h4.02v-8.55h-13.1v17.1l4.54,4v44.83l-4.54,4v17.1h13.1v-8.55h-4.02v5.55h-3.49v-9.34h18.69v9.34h-3.49v-5.55h-4.02v8.55h13.1v-17.1l-4.54-4v-44.83l4.54-4ZM768.72,586.64l3.38-5.43,3.38,5.43h-6.77ZM768.72,524.53l3.38,5.43,3.38-5.43h-6.77Z"/>
      <polygon class="cls-1" points="772.1 581.21 775.49 576.74 775.49 529.95 768.72 529.95 768.72 576.49 772.1 581.21"/>
      <path class="cls-1" d="M824.05,529.25v-17.1h-13.1v8.55h4.02v-5.55h3.49v9.34h-18.69v-9.34h3.49v5.55h4.02v-8.55h-13.1v17.1l4.54,4v44.83l-4.54,4v17.1h13.1v-8.55h-4.02v5.55h-3.49v-9.34h18.69v9.34h-3.49v-5.55h-4.02v8.55h13.1v-17.1l-4.54-4v-44.83l4.54-4ZM805.73,586.78l3.38-5.43,3.38,5.43h-6.77ZM805.73,524.67l3.38,5.43,3.38-5.43h-6.77Z"/>
      <polygon class="cls-1" points="809.11 581.36 812.5 576.88 812.5 530.1 805.73 530.1 805.73 576.63 809.11 581.36"/>
      <path class="cls-1" d="M861.06,529.25v-17.1h-13.1v8.55h4.02v-5.55h3.49v9.34h-18.69v-9.34h3.49v5.55h4.02v-8.55h-13.1v17.1l4.54,4v44.83l-4.54,4v17.1h13.1v-8.55h-4.02v5.55h-3.49v-9.34h18.69v9.34h-3.49v-5.55h-4.02v8.55h13.1v-17.1l-4.54-4v-44.83l4.54-4ZM842.74,586.78l3.38-5.43,3.38,5.43h-6.77ZM842.74,524.67l3.38,5.43,3.38-5.43h-6.77Z"/>
      <polygon class="cls-1" points="846.12 581.36 849.51 576.88 849.51 530.1 842.74 530.1 842.74 576.63 846.12 581.36"/>
      <rect class="cls-4" x="642.56" y="501.19" width="221.71" height="7.66"/>
      <rect class="cls-1" x="870.57" y="577.57" width="5.79" height="21.83"/>
      <rect class="cls-1" x="870.57" y="551.96" width="5.79" height="21.83"/>
      <rect class="cls-1" x="870.57" y="524.9" width="5.79" height="21.83"/>
      <rect class="cls-1" x="870.57" y="484.34" width="5.79" height="21.83"/>
      <rect class="cls-1" x="843.23" y="460.52" width="5.79" height="28.49" transform="translate(1320.89 -371.36) rotate(90)"/>
      <rect class="cls-1" x="806.22" y="460.52" width="5.79" height="28.49" transform="translate(1283.88 -334.35) rotate(90)"/>
      <rect class="cls-1" x="870.57" y="512.06" width="5.79" height="6.95"/>
      <rect class="cls-1" x="870.57" y="471.29" width="5.79" height="6.95"/>
      <line class="cls-1" x1="873.47" y1="506.17" x2="873.47" y2="512.01"/>
      <line class="cls-1" x1="873.47" y1="519.01" x2="873.61" y2="524.9"/>
      <line class="cls-1" x1="873.61" y1="546.73" x2="873.61" y2="551.96"/>
      <line class="cls-1" x1="873.47" y1="573.79" x2="873.47" y2="577.57"/>
      <line class="cls-1" x1="873.47" y1="599.4" x2="873.47" y2="602.55"/>
      <rect class="cls-1" x="630.69" y="577.57" width="5.79" height="21.83"/>
      <rect class="cls-1" x="630.69" y="551.96" width="5.79" height="21.83"/>
      <rect class="cls-1" x="630.69" y="524.9" width="5.79" height="21.83"/>
      <rect class="cls-1" x="630.69" y="484.34" width="5.79" height="21.83"/>
      <rect class="cls-1" x="630.69" y="512.06" width="5.79" height="6.95"/>
      <line class="cls-1" x1="633.58" y1="506.17" x2="633.58" y2="512.01"/>
      <line class="cls-1" x1="633.58" y1="519.01" x2="633.73" y2="524.9"/>
      <line class="cls-1" x1="633.73" y1="546.73" x2="633.73" y2="551.96"/>
      <line class="cls-1" x1="633.58" y1="573.79" x2="633.58" y2="577.57"/>
      <line class="cls-1" x1="633.58" y1="599.4" x2="633.58" y2="602.55"/>
      <line class="cls-1" x1="823.36" y1="474.76" x2="831.88" y2="474.76"/>
      <rect class="cls-1" x="769.21" y="460.52" width="5.79" height="28.49" transform="translate(1246.86 -297.34) rotate(90)"/>
      <rect class="cls-1" x="732.2" y="460.52" width="5.79" height="28.49" transform="translate(1209.85 -260.33) rotate(90)"/>
      <line class="cls-1" x1="749.34" y1="474.76" x2="757.86" y2="474.76"/>
      <line class="cls-1" x1="786.35" y1="474.76" x2="794.87" y2="474.76"/>
      <rect class="cls-1" x="694.57" y="460.52" width="5.79" height="28.49" transform="translate(1172.23 -222.71) rotate(90)"/>
      <rect class="cls-1" x="657.56" y="460.52" width="5.79" height="28.49" transform="translate(1135.22 -185.69) rotate(90)"/>
      <line class="cls-1" x1="674.7" y1="474.76" x2="683.22" y2="474.76"/>
      <line class="cls-1" x1="860.37" y1="474.76" x2="870.57" y2="474.76"/>
      <line class="cls-1" x1="873.47" y1="484.34" x2="873.47" y2="478.24"/>
      <rect class="cls-1" x="630.69" y="471.13" width="5.79" height="6.95" transform="translate(1267.16 949.21) rotate(180)"/>
      <line class="cls-1" x1="646.68" y1="474.61" x2="636.47" y2="474.61"/>
      <line class="cls-1" x1="633.58" y1="484.18" x2="633.58" y2="478.08"/>
      <rect class="cls-1" x="644.6" y="483.44" width="69.96" height="15.83"/>
      <rect class="cls-1" x="718.44" y="483.44" width="69.96" height="15.83"/>
      <rect class="cls-1" x="792.64" y="483.32" width="69.96" height="15.83"/>
      <path class="cls-1" d="M683.91,486.67h-8.68,1.57s-4.14,4.83,1.02,9.32l1.46.06h.57l1.46-.06c5.16-4.49,1.02-9.32,1.02-9.32"/>
      <path class="cls-10" d="M679.57,498.6c8.04-5.87,8.99-9.9.12-14.16-10.05,3.64-7.83,9.32-.12,14.16h0ZM679.57,498.7c-8.63-4.84-10.36-11.07-.01-15.06,10.64,3.49,9.03,10.64.01,15.06h0Z"/>
      <path class="cls-1" d="M757.94,486.67h-8.68,1.57s-4.14,4.83,1.02,9.32l1.46.06h.57l1.46-.06c5.16-4.49,1.02-9.32,1.02-9.32"/>
      <path class="cls-10" d="M753.6,498.6c8.04-5.87,8.99-9.9.12-14.16-10.05,3.64-7.83,9.32-.12,14.16h0ZM753.6,498.7c-8.63-4.84-10.36-11.07-.01-15.06,10.64,3.49,9.03,10.64.01,15.06h0Z"/>
      <path class="cls-1" d="M831.96,486.67h-8.68,1.57s-4.14,4.83,1.02,9.32l1.46.06h.57l1.46-.06c5.16-4.49,1.02-9.32,1.02-9.32"/>
      <path class="cls-10" d="M827.62,498.6c8.04-5.87,8.99-9.9.12-14.16-10.05,3.64-7.83,9.32-.12,14.16h0ZM827.62,498.7c-8.63-4.84-10.36-11.07-.01-15.06,10.64,3.49,9.03,10.64.01,15.06h0Z"/>
      <line class="cls-1" x1="641.98" y1="564.81" x2="641.98" y2="559.58"/>
      <line class="cls-1" x1="679.57" y1="498.65" x2="679.57" y2="496.05"/>
      <line class="cls-1" x1="642.56" y1="505.02" x2="864.28" y2="505.02"/>
      <line class="cls-1" x1="664.53" y1="499.27" x2="664.53" y2="509.1"/>
      <line class="cls-1" x1="694.7" y1="498.65" x2="694.7" y2="508.77"/>
      <line class="cls-1" x1="731.71" y1="508.77" x2="731.71" y2="498.65"/>
      <line class="cls-1" x1="760.51" y1="508.77" x2="760.51" y2="498.65"/>
      <line class="cls-1" x1="805.73" y1="508.77" x2="805.73" y2="498.65"/>
      <line class="cls-1" x1="842.74" y1="509.1" x2="842.74" y2="498.65"/>
      <rect class="cls-4" x="624.6" y="427.91" width="258" height="40.09"/>
      <rect class="cls-4" x="624.6" y="427.91" width="91.99" height="40.09"/>
      <rect class="cls-7" x="716.41" y="427.91" width="74.02" height="40.09"/>
      <rect class="cls-7" x="790.61" y="427.91" width="91.99" height="40.09"/>
      <line class="cls-4" x1="647.49" y1="426.99" x2="647.49" y2="270.09"/>
      <line class="cls-4" x1="632.15" y1="427.91" x2="632.15" y2="295.91"/>
      <line class="cls-4" x1="667.39" y1="426.99" x2="667.39" y2="250.51"/>
      <line class="cls-4" x1="686.49" y1="238.18" x2="686.49" y2="427.23"/>
      <line class="cls-4" x1="705.47" y1="229.91" x2="705.47" y2="427.23"/>
      <line class="cls-4" x1="724.87" y1="224.65" x2="724.87" y2="427.5"/>
      <line class="cls-4" x1="743.57" y1="222.2" x2="743.57" y2="427.5"/>
      <line class="cls-4" x1="777.47" y1="223.78" x2="777.47" y2="427.26"/>
      <line class="cls-4" x1="794.87" y1="227.71" x2="794.87" y2="427.26"/>
      <line class="cls-4" x1="812.88" y1="234.35" x2="813.21" y2="427.26"/>
      <line class="cls-4" x1="829.98" y1="243.57" x2="830.98" y2="427.26"/>
      <line class="cls-4" x1="847.14" y1="256.69" x2="848.96" y2="428.73"/>
      <line class="cls-4" x1="861.94" y1="272.98" x2="865.47" y2="428.73"/>
      <line class="cls-4" x1="880.11" y1="311.73" x2="880.11" y2="428.73"/>
      <line class="cls-4" x1="760.51" y1="221.87" x2="760.51" y2="427.17"/>
      <path class="cls-4" d="M602.42,328.39c-.35-6.02-1.39-143.24,150.26-143.28,165.91-.05,160.06,148.65,159.23,143.28"/>
      <path class="cls-4" d="M494.32,597.04l4.37-282.79,86.99.9c-.35-6.02,6.28-145.64,157.89-148.94,195.02-4.24,190.79,158.57,187.05,150.69l84.3-.59-2.05,280.73"/>
      <path class="cls-4" d="M494.22,554.21l4.37-282.79,69.76.72c-1.07,14.12,23.44-143.55,175.12-148.76,194.95-6.7,206.2,158.47,202.45,150.58l68.89-.48-2.05,280.73"/>
      <line class="cls-4" x1="624.6" y1="410.29" x2="882.6" y2="410.29"/>
      <line class="cls-4" x1="624.6" y1="383.03" x2="882.6" y2="383.03"/>
      <line class="cls-4" x1="624.6" y1="349.46" x2="882.6" y2="349.46"/>
      <line class="cls-4" x1="625.51" y1="320.34" x2="881.68" y2="320.34"/>
      <line class="cls-4" x1="633.58" y1="291.23" x2="872.97" y2="291.23"/>
      <line class="cls-4" x1="655.99" y1="260.68" x2="851.31" y2="260.68"/>
    </g>
  </g>
</svg>