<?xml version="1.0" encoding="UTF-8"?>
<svg id="Calque_2" data-name="Calque 2" xmlns="http://www.w3.org/2000/svg" viewBox="0 0 89.62 78.81">
  <defs>
    <style>
      .cls-1 {
        fill: #312783;
      }

      .cls-1, .cls-2 {
        stroke-width: .25px;
      }

      .cls-1, .cls-2, .cls-3 {
        stroke: #1d1d1b;
        stroke-miterlimit: 10;
      }

      .cls-2 {
        fill: #f9b233;
      }

      .cls-3 {
        fill: #1d1d1b;
      }
    </style>
  </defs>
  <g id="chauve_souris" data-name="chauve souris">
    <g id="ailes">
      <path class="cls-3" d="M30.38,57.25l58.24-27.35s3.35,30.93-7.17,27.75c-10.52-3.18-11.62-4.24-11.62-4.24,0,0,5.31,16.35-2.99,11.88s-36.46-8.04-36.46-8.04"/>
      <path class="cls-3" d="M32.57,56.2L.74,5.81s26.62-11.48,24.59-.68c-2.03,10.8-2.97,12.01-2.97,12.01,0,0,15.68-7.04,12.14,1.7-3.54,8.74-1.92,37.36-1.92,37.36"/>
    </g>
    <path class="cls-1" d="M49.84,54.43c0,13.4-10.23,24.26-22.85,24.26s-22.85-10.86-22.85-24.26,10.23-24.26,22.85-24.26c8.38,0,15.71,4.79,19.69,11.94,2.01,3.61,3.16,7.82,3.16,12.32Z"/>
    <g id="yeux">
      <path class="cls-2" d="M23.47,37.19s-8.23,2.43-6.57,11.17,6.57-11.17,6.57-11.17Z"/>
      <path class="cls-2" d="M39.83,50.12s-7.92-3.32-12.15,4.51,12.15-4.51,12.15-4.51Z"/>
    </g>
    <path id="Bouche" class="cls-2" d="M11.14,53.58v10.61l6.7-.45,1.6,7.72,9.57-3.89s-2.17-10.44-17.87-14Z"/>
  </g>
</svg>