<?xml version="1.0" encoding="UTF-8"?>
<svg id="Calque_2" data-name="Calque 2" xmlns="http://www.w3.org/2000/svg" xmlns:xlink="http://www.w3.org/1999/xlink" viewBox="0 0 44.07 169.46">
  <defs>
    <style>
      .cls-1 {
        fill: #575756;
      }

      .cls-1, .cls-2, .cls-3, .cls-4, .cls-5 {
        stroke: #1d1d1b;
        stroke-miterlimit: 10;
      }

      .cls-1, .cls-4, .cls-5 {
        stroke-width: .25px;
      }

      .cls-2, .cls-3 {
        stroke-width: .5px;
      }

      .cls-3 {
        fill: #3c3c3b;
      }

      .cls-4 {
        fill: #f9b233;
      }

      .cls-6 {
        fill: url(#Dégradé_sans_nom_239);
        stroke-width: 0px;
      }

      .cls-5 {
        fill: #82368c;
      }
    </style>
    <radialGradient id="Dégradé_sans_nom_239" data-name="Dégradé sans nom 239" cx="311.45" cy="224.42" fx="311.45" fy="224.42" r="4.33" gradientTransform="translate(-645.04 -353.57) scale(2.14 1.72)" gradientUnits="userSpaceOnUse">
      <stop offset="0" stop-color="#fff"/>
      <stop offset="1" stop-color="#f9b233"/>
    </radialGradient>
  </defs>
  <g id="lampadaire">
    <polygon class="cls-2" points="43.58 169.21 .47 169.21 17.9 143.23 24.56 143.23 43.58 169.21"/>
    <rect class="cls-3" x="17.9" y="15.18" width="6.66" height="128.06"/>
    <g id="lampe">
      <polyline class="cls-4" points="27.6 47.84 13.04 47.84 6.49 31.61 6.49 19.18 27.6 19.18 14.86 19.18 35.97 19.18 35.97 31.61 29.42 47.84 14.86 47.84"/>
      <ellipse class="cls-6" cx="21.23" cy="32.18" rx="9.27" ry="7.45"/>
    </g>
    <path class="cls-1" d="M24.56,15.18h-6.89s-10.3-6.5,3.45-10.12h.25c13.75,3.63,3.45,10.12,3.45,10.12h-6.89"/>
    <polygon class="cls-5" points="23.6 5.75 21.31 4.86 19.02 5.69 19.45 3.84 17.57 2.46 20.07 2.1 21.13 .24 22.33 2.04 24.86 2.27 23.09 3.75 23.6 5.75"/>
  </g>
</svg>