<?xml version="1.0" encoding="UTF-8"?>
<svg id="Calque_2" data-name="Calque 2" xmlns="http://www.w3.org/2000/svg" viewBox="0 0 157.45 155.68">
  <defs>
    <style>
      .cls-1 {
        fill: none;
      }

      .cls-1, .cls-2 {
        stroke: #1d1d1b;
        stroke-miterlimit: 10;
        stroke-width: .25px;
      }

      .cls-2 {
        fill: #fff;
      }
    </style>
  </defs>
  <g id="toiles_d_areignée" data-name="toiles d&amp;apos;areignée">
    <g id="toile">
      <path class="cls-2" d="M157.45.41c-34.72.34-23.15,59.17-23.15,59.17-29.96,4.09-33.38,51.4-33.38,51.4-48.02-7.83-68.06,44.26-68.06,44.26l-10.65-51.65L.92.41h156.53Z"/>
      <line class="cls-2" x1=".92" y1=".41" x2="100.92" y2="110.98"/>
      <polyline class="cls-1" points="134.3 59.58 .92 .41 134.3 21.4"/>
      <path class="cls-1" d="M106.39.41c-27.06-1.13-16.87,39.3-16.87,39.3-28.79-1.31-22.38,33.92-22.38,33.92,0,0-39.59-3.31-44.94,29.96,0,0-13.73-16.69-21.28-4.35"/>
      <path class="cls-1" d="M65.37.41c-17.87,2.11-6.69,25.62-6.69,25.62-20.47.84-14.09,22.66-14.09,22.66-21.29-7.48-30.31,16.47-30.31,16.47,0,0-10.48-14.78-13.36-2.52"/>
      <path class="cls-1" d="M30.81.41c-11.91,0-4.92,11.08-4.92,11.08-11.55-2.98-5.7,10.24-5.7,10.24-14.19-5.17-12.39,12.09-12.39,12.09,0,0-4.19-13.22-6.89-5.98"/>
      <polyline class="cls-1" points="110.47 77.83 .92 .41 64.29 117.52"/>
      <path class="cls-1" d="M32.86,155.24s-23.96-26.89-31.94-12.09V.41"/>
    </g>
  </g>
</svg>